<?xml version="1.0" standalone="no"?>
<!DOCTYPE svg PUBLIC "-//W3C//DTD SVG 20010904//EN"
 "http://www.w3.org/TR/2001/REC-SVG-20010904/DTD/svg10.dtd">
<svg version="1.0" xmlns="http://www.w3.org/2000/svg"
 width="1830.000000pt" height="1830.000000pt" viewBox="0 0 1830.000000 1830.000000"
 preserveAspectRatio="xMidYMid meet">
<metadata>
Created by potrace 1.14, written by Peter Selinger 2001-2017
</metadata>
<g transform="translate(0.000000,1830.000000) scale(0.100000,-0.100000)"
fill="#000000" stroke="none">
<path d="M7642 16797 l-1502 -1502 0 -225 0 -225 1505 1505 1505 1505 1498
-1498 c823 -823 1500 -1497 1505 -1497 4 0 7 98 7 218 l0 217 -1503 1503
c-826 826 -1504 1502 -1507 1502 -3 0 -681 -676 -1508 -1503z"/>
<path d="M12340 13188 l0 -3988 -3190 0 -3190 0 0 3980 c0 2189 -3 3980 -8
3980 -4 0 -287 -280 -630 -623 l-622 -622 0 -3988 0 -3987 3820 0 3820 0 0
-3407 0 -3408 630 630 630 630 0 6765 0 6765 -630 630 -630 630 0 -3987z"/>
<path d="M3307 14522 l-627 -627 0 -4745 0 -4745 630 -630 630 -630 0 6003 c0
3301 -1 6002 -3 6002 -1 0 -285 -282 -630 -628z"/>
<path d="M14360 9150 l0 -6005 625 625 625 625 0 4755 0 4755 -625 625 -625
625 0 -6005z"/>
<path d="M13780 13450 l0 -225 193 -193 c106 -105 196 -192 200 -192 4 0 7 98
7 217 l0 217 -200 200 -200 201 0 -225z"/>
<path d="M4312 13467 l-192 -193 0 -217 c0 -119 3 -217 7 -217 4 0 94 87 200
192 l193 193 0 217 c0 120 -4 218 -8 218 -4 0 -94 -87 -200 -193z"/>
<path d="M1245 10400 l-1250 -1250 1250 -1250 1250 -1250 3 222 2 223 -1027
1027 -1028 1028 1028 1028 1027 1027 -2 223 -3 222 -1250 -1250z"/>
<path d="M15800 11430 l0 -225 1027 -1027 1028 -1028 -1028 -1028 -1027 -1027
2 -223 3 -222 1250 1250 1250 1250 -1253 1253 -1252 1252 0 -225z"/>
<path d="M4700 4967 l0 -2582 623 -623 c342 -342 625 -622 630 -622 4 0 7
1442 7 3205 l0 3205 -630 0 -630 0 0 -2583z"/>
<path d="M4120 5243 l0 -217 192 -193 c106 -106 196 -193 200 -193 4 0 8 98 8
218 l0 217 -193 193 c-106 105 -196 192 -200 192 -4 0 -7 -98 -7 -217z"/>
<path d="M13972 5267 l-192 -192 0 -225 0 -225 200 201 200 200 0 217 c0 119
-3 217 -8 217 -4 0 -94 -87 -200 -193z"/>
<path d="M6140 3230 l0 -225 1505 -1505 1505 -1505 1505 1505 1505 1505 0 217
c0 120 -3 218 -7 218 -5 0 -682 -674 -1505 -1497 l-1498 -1498 -1505 1505
-1505 1505 0 -225z"/>
</g>
</svg>
