<?xml version="1.0" encoding="UTF-8" standalone="no"?>
<svg
   xmlns:dc="http://purl.org/dc/elements/1.1/"
   xmlns:cc="http://creativecommons.org/ns#"
   xmlns:rdf="http://www.w3.org/1999/02/22-rdf-syntax-ns#"
   xmlns:svg="http://www.w3.org/2000/svg"
   xmlns="http://www.w3.org/2000/svg"
   xmlns:sodipodi="http://sodipodi.sourceforge.net/DTD/sodipodi-0.dtd"
   xmlns:inkscape="http://www.inkscape.org/namespaces/inkscape"
   sodipodi:docname="logo (invert).svg"
   width="1559.6984"
   height="585.47266"
   viewBox="0 0 412.67018 154.90631"
   version="1.1"
   id="svg8"
   inkscape:version="1.0.1 (3bc2e813f5, 2020-09-07)"
   inkscape:export-filename="C:\Users\Cameron\Dropbox\Web\Hunt for Habit\img\logo.png"
   inkscape:export-xdpi="300"
   inkscape:export-ydpi="300">
  <defs
     id="defs2" />
  <sodipodi:namedview
     inkscape:snap-intersection-paths="true"
     inkscape:window-maximized="1"
     inkscape:window-y="-8"
     inkscape:window-x="-8"
     inkscape:window-height="1017"
     inkscape:window-width="1920"
     id="base"
     pagecolor="#ffffff"
     bordercolor="#666666"
     borderopacity="1.0"
     inkscape:pageopacity="0.0"
     inkscape:pageshadow="2"
     inkscape:zoom="0.70710678"
     inkscape:cx="783.74924"
     inkscape:cy="321.10384"
     inkscape:document-units="px"
     inkscape:current-layer="layer1"
     inkscape:document-rotation="0"
     showgrid="false"
     units="px"
     showborder="false" />
  <metadata
     id="metadata5">
    <rdf:RDF>
      <cc:Work
         rdf:about="">
        <dc:format>image/svg+xml</dc:format>
        <dc:type
           rdf:resource="http://purl.org/dc/dcmitype/StillImage" />
        <dc:title></dc:title>
      </cc:Work>
    </rdf:RDF>
  </metadata>
  <g
     transform="translate(-51.664015,200.21875)"
     inkscape:label="Layer 1"
     inkscape:groupmode="layer"
     id="layer1">
    <path
       transform="matrix(0.26458334,0,0,0.26458334,51.664015,-200.21875)"
       d="m 292.73633,0 c -32.10629,32.103836 -64.21207,64.206711 -96.31836,96.310547 v 14.130863 c 32.10754,-32.102592 64.2047,-64.216038 96.31836,-96.312504 32.03985,32.022652 64.06393,64.06107 96.09765,96.089844 V 96.097656 Z m 148.10351,148.10352 v 14.12109 l 12.59961,12.60156 v -14.12305 c -4.2003,-4.2003 -8.3993,-8.3993 -12.59961,-12.5996 z m -296.42773,0.19921 -12.37891,12.39454 v 14.1289 c 4.12894,-4.12894 8.25778,-8.25781 12.38672,-12.38672 -0.005,-4.70963 0.01,-9.43941 -0.008,-14.13672 z M 80.019531,212.69531 C 53.346302,239.37345 26.673229,266.05038 0,292.72852 c 26.67569,26.67567 53.351654,53.35166 80.027344,80.02734 V 358.62695 C 58.064986,336.6597 36.092916,314.70193 14.136719,292.72852 36.092916,270.7551 58.064986,248.79733 80.027344,226.83008 c -0.0049,-4.70963 0.0096,-9.43746 -0.0078,-14.13477 z m 425.417969,0.006 v 14.12305 c 21.96484,21.96975 43.93976,43.92842 65.89844,65.9043 -21.95868,21.97587 -43.9336,43.93653 -65.89844,65.90625 v 14.13671 l 80.03516,-80.03515 c -26.67814,-26.67831 -53.35702,-53.35713 -80.03516,-80.0353 z m -373.4043,197.9315 v 14.12891 c 4.12882,4.12901 8.2579,8.25771 12.38672,12.38672 v -14.12891 c -4.12901,-4.12884 -8.2576,-8.25798 -12.38672,-12.38672 z m 321.40625,0.008 -12.59961,12.5918 v 14.13672 l 12.59961,-12.59961 z m -257.02148,64.37305 v 14.13672 c 32.10611,32.10759 64.21224,64.21468 96.31836,96.32227 L 388.83398,489.375 v -14.12891 c -32.03368,32.02635 -64.05792,64.06176 -96.09765,96.08203 -32.1108,-32.10046 -64.21349,-64.20805 -96.31836,-96.31445 z"
       style="color:#000000;font-style:normal;font-variant:normal;font-weight:normal;font-stretch:normal;font-size:medium;line-height:normal;font-family:sans-serif;font-variant-ligatures:normal;font-variant-position:normal;font-variant-caps:normal;font-variant-numeric:normal;font-variant-alternates:normal;font-variant-east-asian:normal;font-feature-settings:normal;font-variation-settings:normal;text-indent:0;text-align:start;text-decoration:none;text-decoration-line:none;text-decoration-style:solid;text-decoration-color:#000000;letter-spacing:normal;word-spacing:normal;text-transform:none;writing-mode:lr-tb;direction:ltr;text-orientation:mixed;dominant-baseline:auto;baseline-shift:baseline;text-anchor:start;white-space:normal;shape-padding:0;shape-margin:0;inline-size:0;clip-rule:nonzero;display:inline;overflow:visible;visibility:visible;opacity:1;isolation:auto;mix-blend-mode:normal;color-interpolation:sRGB;color-interpolation-filters:linearRGB;solid-color:#000000;solid-opacity:1;vector-effect:none;fill:#5fd3bc;fill-opacity:1;fill-rule:nonzero;stroke:none;stroke-width:9.99999;stroke-linecap:round;stroke-linejoin:miter;stroke-miterlimit:4;stroke-dasharray:none;stroke-dashoffset:0;stroke-opacity:1;paint-order:stroke fill markers;color-rendering:auto;image-rendering:auto;shape-rendering:auto;text-rendering:auto;enable-background:accumulate;stop-color:#000000;stop-opacity:1"
       id="path1149" />
    <path
       sodipodi:nodetypes="ccccc"
       id="path1218"
       transform="matrix(0.26458334,0,0,0.26458334,51.661763,-200.22157)"
       d="m 150.42969,344.02674 v 164.92443 l 39.99414,39.99414 V 344.02674 Z"
       style="fill:#ffffff;fill-opacity:1;stroke:none;stroke-width:39.9999;stroke-linecap:round;stroke-linejoin:miter;stroke-miterlimit:4;stroke-dasharray:none;paint-order:stroke fill markers" />
    <path
       id="path1216"
       transform="matrix(0.26458334,0,0,0.26458334,51.661763,-200.22157)"
       d="m 459.44922,100.93359 v 383.62696 l 39.99609,-39.9961 V 140.92773 Z"
       style="fill:#ffffff;fill-opacity:1;stroke:none;stroke-width:39.9999;stroke-linecap:round;stroke-linejoin:miter;stroke-miterlimit:4;stroke-dasharray:none;paint-order:stroke fill markers" />
    <path
       id="path1214"
       transform="matrix(0.26458334,0,0,0.26458334,51.661763,-200.22157)"
       d="m 126.03906,100.93359 -40.001951,40.00196 v 303.62109 l 40.001951,40.00391 z"
       style="fill:#ffffff;fill-opacity:1;stroke:none;stroke-width:39.9999;stroke-linecap:round;stroke-linejoin:miter;stroke-miterlimit:4;stroke-dasharray:none;paint-order:stroke fill markers" />
    <path
       id="rect1176"
       transform="matrix(0.26458334,0,0,0.26458334,51.661763,-200.22157)"
       d="M 394.84375,36.328125 V 291.24805 H 190.42383 V 36.548828 L 150.42969,76.542969 V 331.25 H 394.84375 V 549.16602 L 434.8457,509.16406 V 76.330078 Z"
       style="fill:#ffffff;fill-opacity:1;stroke:none;stroke-width:39.9999;stroke-linecap:round;stroke-linejoin:miter;stroke-miterlimit:4;stroke-dasharray:none;paint-order:stroke fill markers" />
    <g
       style="font-style:normal;font-variant:normal;font-weight:normal;font-stretch:normal;font-size:49.9447px;line-height:1.25;font-family:'Pathway Gothic One';-inkscape-font-specification:'Pathway Gothic One, Normal';font-variant-ligatures:normal;font-variant-caps:normal;font-variant-numeric:normal;font-variant-east-asian:normal;letter-spacing:0px;word-spacing:0px;fill:#ffffff;fill-opacity:1;stroke:#ffffff;stroke-width:0.529167;stroke-miterlimit:4;stroke-dasharray:none;stroke-opacity:1"
       id="text1115"
       aria-label="HUNT FOR HABIT">
      <path
         id="path839"
         style="font-style:normal;font-variant:normal;font-weight:normal;font-stretch:normal;font-size:49.9447px;font-family:'Pathway Gothic One';-inkscape-font-specification:'Pathway Gothic One, Normal';font-variant-ligatures:normal;font-variant-caps:normal;font-variant-numeric:normal;font-variant-east-asian:normal;fill:#ffffff;stroke:#ffffff;stroke-width:0.529167;stroke-miterlimit:4;stroke-dasharray:none;fill-opacity:1;stroke-opacity:1"
         d="m 243.13223,-116.16952 v -15.83247 h -7.54165 v 15.83247 H 231.595 v -34.96129 h 3.99558 v 15.93236 h 7.54165 v -15.93236 h 3.94563 v 34.96129 z" />
      <path
         id="path841"
         style="font-style:normal;font-variant:normal;font-weight:normal;font-stretch:normal;font-size:49.9447px;font-family:'Pathway Gothic One';-inkscape-font-specification:'Pathway Gothic One, Normal';font-variant-ligatures:normal;font-variant-caps:normal;font-variant-numeric:normal;font-variant-east-asian:normal;fill:#ffffff;stroke:#ffffff;stroke-width:0.529167;stroke-miterlimit:4;stroke-dasharray:none;fill-opacity:1;stroke-opacity:1"
         d="m 264.53587,-151.13081 h 3.94563 v 24.52285 q 0,6.34298 -2.04773,8.79027 -1.99779,2.39734 -5.69369,2.39734 -3.69591,0 -5.74364,-2.39734 -1.99779,-2.44729 -1.99779,-8.79027 v -24.52285 h 3.94563 v 25.27202 q 0,4.04552 0.99889,5.64375 0.9989,1.54829 2.74696,1.54829 1.79801,0 2.7969,-1.54829 1.04884,-1.59823 1.04884,-5.64375 z" />
      <path
         id="path843"
         style="font-style:normal;font-variant:normal;font-weight:normal;font-stretch:normal;font-size:49.9447px;font-family:'Pathway Gothic One';-inkscape-font-specification:'Pathway Gothic One, Normal';font-variant-ligatures:normal;font-variant-caps:normal;font-variant-numeric:normal;font-variant-east-asian:normal;fill:#ffffff;stroke:#ffffff;stroke-width:0.529167;stroke-miterlimit:4;stroke-dasharray:none;fill-opacity:1;stroke-opacity:1"
         d="m 278.31437,-116.16952 h -3.89569 v -34.96129 h 4.14541 l 8.14099,25.57169 v -25.57169 h 3.89568 v 34.96129 h -4.14541 l -8.14098,-25.52174 z" />
      <path
         id="path845"
         style="font-style:normal;font-variant:normal;font-weight:normal;font-stretch:normal;font-size:49.9447px;font-family:'Pathway Gothic One';-inkscape-font-specification:'Pathway Gothic One, Normal';font-variant-ligatures:normal;font-variant-caps:normal;font-variant-numeric:normal;font-variant-east-asian:normal;fill:#ffffff;stroke:#ffffff;stroke-width:0.529167;stroke-miterlimit:4;stroke-dasharray:none;fill-opacity:1;stroke-opacity:1"
         d="m 294.35754,-147.93435 v -3.19646 h 13.6349 v 3.19646 h -4.84463 v 31.76483 h -3.94563 v -31.76483 z" />
      <path
         id="path847"
         style="font-style:normal;font-variant:normal;font-weight:normal;font-stretch:normal;font-size:49.9447px;font-family:'Pathway Gothic One';-inkscape-font-specification:'Pathway Gothic One, Normal';font-variant-ligatures:normal;font-variant-caps:normal;font-variant-numeric:normal;font-variant-east-asian:normal;fill:#ffffff;stroke:#ffffff;stroke-width:0.529167;stroke-miterlimit:4;stroke-dasharray:none;fill-opacity:1;stroke-opacity:1"
         d="m 322.9938,-132.00199 v 15.83247 h -3.99558 v -34.96129 h 11.98673 v 3.19646 h -7.99115 v 12.7359 h 7.24198 v 3.19646 z" />
      <path
         id="path849"
         style="font-style:normal;font-variant:normal;font-weight:normal;font-stretch:normal;font-size:49.9447px;font-family:'Pathway Gothic One';-inkscape-font-specification:'Pathway Gothic One, Normal';font-variant-ligatures:normal;font-variant-caps:normal;font-variant-numeric:normal;font-variant-east-asian:normal;fill:#ffffff;stroke:#ffffff;stroke-width:0.529167;stroke-miterlimit:4;stroke-dasharray:none;fill-opacity:1;stroke-opacity:1"
         d="m 350.02715,-140.69236 v 14.0844 q 0,6.34298 -2.04774,8.79027 -1.99778,2.39734 -5.79358,2.39734 -3.74585,0 -5.79359,-2.39734 -1.99778,-2.44729 -1.99778,-8.79027 v -14.0844 q 0,-6.34298 1.99778,-8.74033 2.04774,-2.44729 5.79359,-2.44729 3.7958,0 5.79358,2.44729 2.04774,2.39735 2.04774,8.74033 z m -3.94563,14.83357 v -15.58274 q 0,-7.19204 -3.84575,-7.19204 -1.84795,0 -2.89679,1.54828 -0.99889,1.54829 -0.99889,5.64376 v 15.58274 q 0,4.09547 0.99889,5.64375 1.04884,1.54829 2.89679,1.54829 3.84575,0 3.84575,-7.19204 z" />
      <path
         id="path851"
         style="font-style:normal;font-variant:normal;font-weight:normal;font-stretch:normal;font-size:49.9447px;font-family:'Pathway Gothic One';-inkscape-font-specification:'Pathway Gothic One, Normal';font-variant-ligatures:normal;font-variant-caps:normal;font-variant-numeric:normal;font-variant-east-asian:normal;fill:#ffffff;stroke:#ffffff;stroke-width:0.529167;stroke-miterlimit:4;stroke-dasharray:none;fill-opacity:1;stroke-opacity:1"
         d="m 355.57881,-116.16952 v -34.96129 h 6.19315 q 3.6959,0 5.74364,2.3474 2.04773,2.34741 2.04773,8.44066 v 0.24972 q 0,7.5916 -3.69591,9.63933 l 4.14541,14.28418 h -4.09546 l -3.89569,-13.38518 h -2.44729 v 13.38518 z m 10.03889,-23.42406 v -1.49834 q 0,-3.84574 -1.04884,-5.34408 -0.9989,-1.49835 -2.7969,-1.49835 h -2.19757 v 15.23314 h 2.19757 q 3.84574,0 3.84574,-6.89237 z" />
      <path
         id="path853"
         style="font-style:normal;font-variant:normal;font-weight:normal;font-stretch:normal;font-size:49.9447px;font-family:'Pathway Gothic One';-inkscape-font-specification:'Pathway Gothic One, Normal';font-variant-ligatures:normal;font-variant-caps:normal;font-variant-numeric:normal;font-variant-east-asian:normal;fill:#ffffff;stroke:#ffffff;stroke-width:0.529167;stroke-miterlimit:4;stroke-dasharray:none;fill-opacity:1;stroke-opacity:1"
         d="m 393.64916,-116.16952 v -15.83247 h -7.54164 v 15.83247 h -3.99558 v -34.96129 h 3.99558 v 15.93236 h 7.54164 v -15.93236 h 3.94564 v 34.96129 z" />
      <path
         id="path855"
         style="font-style:normal;font-variant:normal;font-weight:normal;font-stretch:normal;font-size:49.9447px;font-family:'Pathway Gothic One';-inkscape-font-specification:'Pathway Gothic One, Normal';font-variant-ligatures:normal;font-variant-caps:normal;font-variant-numeric:normal;font-variant-east-asian:normal;fill:#ffffff;stroke:#ffffff;stroke-width:0.529167;stroke-miterlimit:4;stroke-dasharray:none;fill-opacity:1;stroke-opacity:1"
         d="m 415.60219,-116.16952 -1.54828,-9.08993 h -7.0422 l -1.49835,9.08993 h -3.99557 l 6.39292,-34.96129 h 5.29414 l 6.39292,34.96129 z m -5.04441,-29.91687 -2.99668,17.63048 h 5.94342 z" />
      <path
         id="path857"
         style="font-style:normal;font-variant:normal;font-weight:normal;font-stretch:normal;font-size:49.9447px;font-family:'Pathway Gothic One';-inkscape-font-specification:'Pathway Gothic One, Normal';font-variant-ligatures:normal;font-variant-caps:normal;font-variant-numeric:normal;font-variant-east-asian:normal;fill:#ffffff;stroke:#ffffff;stroke-width:0.529167;stroke-miterlimit:4;stroke-dasharray:none;fill-opacity:1;stroke-opacity:1"
         d="m 423.56993,-116.16952 v -34.96129 h 5.6937 q 3.74585,0 5.74364,2.09768 2.04773,2.09768 2.04773,7.34187 0,6.09325 -4.2453,7.49171 4.99447,1.09878 4.99447,8.04109 0,5.54386 -2.04773,7.79138 -2.04773,2.19756 -5.6937,2.19756 z m 10.33855,-9.03999 v -1.3485 q 0,-6.24309 -3.94563,-6.24309 h -2.39734 v 13.48507 h 2.39734 q 1.8979,0 2.8968,-1.29857 1.04883,-1.29856 1.04883,-4.59491 z m -0.54939,-16.08219 v -1.19867 q 0,-3.14652 -0.99889,-4.29525 -0.99889,-1.19867 -2.84685,-1.19867 h -1.94784 v 12.53612 h 1.94784 q 3.84574,0 3.84574,-5.84353 z" />
      <path
         id="path859"
         style="font-style:normal;font-variant:normal;font-weight:normal;font-stretch:normal;font-size:49.9447px;font-family:'Pathway Gothic One';-inkscape-font-specification:'Pathway Gothic One, Normal';font-variant-ligatures:normal;font-variant-caps:normal;font-variant-numeric:normal;font-variant-east-asian:normal;fill:#ffffff;stroke:#ffffff;stroke-width:0.529167;stroke-miterlimit:4;stroke-dasharray:none;fill-opacity:1;stroke-opacity:1"
         d="m 442.68939,-116.16952 v -34.96129 h 3.99558 v 34.96129 z" />
      <path
         id="path861"
         style="font-style:normal;font-variant:normal;font-weight:normal;font-stretch:normal;font-size:49.9447px;font-family:'Pathway Gothic One';-inkscape-font-specification:'Pathway Gothic One, Normal';font-variant-ligatures:normal;font-variant-caps:normal;font-variant-numeric:normal;font-variant-east-asian:normal;fill:#ffffff;stroke:#ffffff;stroke-width:0.529167;stroke-miterlimit:4;stroke-dasharray:none;fill-opacity:1;stroke-opacity:1"
         d="m 450.43473,-147.93435 v -3.19646 h 13.6349 v 3.19646 h -4.84464 v 31.76483 h -3.94563 v -31.76483 z" />
    </g>
    <g
       style="font-style:normal;font-variant:normal;font-weight:300;font-stretch:normal;font-size:14.9468px;line-height:1.25;font-family:Lato;-inkscape-font-specification:'Lato, Light';font-variant-ligatures:normal;font-variant-caps:normal;font-variant-numeric:normal;font-variant-east-asian:normal;letter-spacing:0px;word-spacing:0px;fill:#5fd3bc;fill-opacity:1;stroke:none;stroke-width:0.264583"
       id="text1155"
       aria-label="Fitness &amp; Personal Training">
      <path
         id="path864"
         style="font-style:normal;font-variant:normal;font-weight:300;font-stretch:normal;font-size:14.9468px;font-family:Lato;-inkscape-font-specification:'Lato, Light';font-variant-ligatures:normal;font-variant-caps:normal;font-variant-numeric:normal;font-variant-east-asian:normal;fill:#5fd3bc;fill-opacity:1;stroke-width:0.264583"
         d="m 232.24061,-106.09889 v 4.44668 h 4.82034 v 0.63524 h -4.82034 v 4.857706 h -0.76976 v -10.574856 h 6.33744 v 0.63523 z" />
      <path
         id="path866"
         style="font-style:normal;font-variant:normal;font-weight:300;font-stretch:normal;font-size:14.9468px;font-family:Lato;-inkscape-font-specification:'Lato, Light';font-variant-ligatures:normal;font-variant-caps:normal;font-variant-numeric:normal;font-variant-east-asian:normal;fill:#5fd3bc;fill-opacity:1;stroke-width:0.264583"
         d="m 240.3051,-103.5953 v 7.436036 h -0.70997 v -7.436036 z m 0.30641,-2.56337 q 0,0.13452 -0.0598,0.25409 -0.0523,0.1121 -0.142,0.20178 -0.0897,0.0897 -0.20925,0.142 -0.11958,0.0523 -0.2541,0.0523 -0.13452,0 -0.25409,-0.0523 -0.11958,-0.0523 -0.20926,-0.142 -0.0897,-0.0897 -0.14199,-0.20178 -0.0523,-0.11957 -0.0523,-0.25409 0,-0.13452 0.0523,-0.2541 0.0523,-0.12705 0.14199,-0.21673 0.0897,-0.0897 0.20926,-0.14199 0.11957,-0.0523 0.25409,-0.0523 0.13452,0 0.2541,0.0523 0.11957,0.0523 0.20925,0.14199 0.0897,0.0897 0.142,0.21673 0.0598,0.11958 0.0598,0.2541 z" />
      <path
         id="path868"
         style="font-style:normal;font-variant:normal;font-weight:300;font-stretch:normal;font-size:14.9468px;font-family:Lato;-inkscape-font-specification:'Lato, Light';font-variant-ligatures:normal;font-variant-caps:normal;font-variant-numeric:normal;font-variant-east-asian:normal;fill:#5fd3bc;fill-opacity:1;stroke-width:0.264583"
         d="m 244.87369,-96.039689 q -0.75482,0 -1.1808,-0.418511 -0.41851,-0.41851 -0.41851,-1.292898 v -5.081912 h -1.0687 q -0.0822,0 -0.13452,-0.0448 -0.0523,-0.0448 -0.0523,-0.12705 v -0.27651 l 1.27048,-0.0897 0.17936,-2.66054 q 0.0149,-0.0673 0.0598,-0.11957 0.0448,-0.0523 0.12704,-0.0523 h 0.33631 v 2.83989 h 2.34664 v 0.53061 h -2.34664 v 5.044545 q 0,0.30641 0.0747,0.530612 0.0822,0.216728 0.21673,0.358723 0.14199,0.141994 0.32883,0.209255 0.18683,0.06726 0.40356,0.06726 0.26904,0 0.46335,-0.07473 0.19431,-0.08221 0.33631,-0.171889 0.14199,-0.09715 0.23167,-0.171888 0.0897,-0.08221 0.142,-0.08221 0.0598,0 0.11957,0.07473 l 0.19431,0.313883 q -0.28399,0.313882 -0.72492,0.508191 -0.43346,0.186835 -0.90428,0.186835 z" />
      <path
         id="path870"
         style="font-style:normal;font-variant:normal;font-weight:300;font-stretch:normal;font-size:14.9468px;font-family:Lato;-inkscape-font-specification:'Lato, Light';font-variant-ligatures:normal;font-variant-caps:normal;font-variant-numeric:normal;font-variant-east-asian:normal;fill:#5fd3bc;fill-opacity:1;stroke-width:0.264583"
         d="m 248.62977,-102.29493 q 0.51567,-0.64271 1.18827,-1.03132 0.68008,-0.38862 1.50963,-0.38862 0.61282,0 1.07617,0.19431 0.47082,0.19431 0.77723,0.5605 0.30641,0.3662 0.46335,0.88186 0.15694,0.51567 0.15694,1.16585 v 4.753086 h -0.71744 v -4.753086 q 0,-1.04627 -0.4783,-1.63667 -0.4783,-0.59787 -1.45731,-0.59787 -0.72492,0 -1.36016,0.37367 -0.62777,0.36619 -1.12101,1.02385 v 5.590106 h -0.71745 v -7.436036 h 0.39609 q 0.18684,0 0.21673,0.18684 z" />
      <path
         id="path872"
         style="font-style:normal;font-variant:normal;font-weight:300;font-stretch:normal;font-size:14.9468px;font-family:Lato;-inkscape-font-specification:'Lato, Light';font-variant-ligatures:normal;font-variant-caps:normal;font-variant-numeric:normal;font-variant-east-asian:normal;fill:#5fd3bc;fill-opacity:1;stroke-width:0.264583"
         d="m 261.39854,-100.62836 q 0,-0.59787 -0.17188,-1.06869 -0.16442,-0.4783 -0.47083,-0.80713 -0.30641,-0.32883 -0.73239,-0.50072 -0.41851,-0.17936 -0.9267,-0.17936 -0.57546,0 -1.03133,0.17936 -0.45588,0.17936 -0.79218,0.51567 -0.32883,0.3363 -0.53061,0.80712 -0.20179,0.47083 -0.26905,1.05375 z m -4.96233,0.45588 v 0.142 q 0,0.837016 0.1943,1.472255 0.19431,0.635239 0.55304,1.068696 0.35872,0.425984 0.86691,0.642713 0.50819,0.216728 1.13596,0.216728 0.5605,0 0.97154,-0.119574 0.41104,-0.127048 0.68755,-0.276516 0.28399,-0.156941 0.44841,-0.276516 0.16441,-0.127048 0.23914,-0.127048 0.0972,0 0.14947,0.07473 l 0.19431,0.239149 q -0.17936,0.224202 -0.4783,0.418511 -0.29146,0.194308 -0.65766,0.336303 -0.35872,0.134521 -0.77723,0.216728 -0.41104,0.08221 -0.82955,0.08221 -0.76228,0 -1.39005,-0.261569 -0.62776,-0.269043 -1.07617,-0.777234 -0.4484,-0.508191 -0.69503,-1.240584 -0.23914,-0.739867 -0.23914,-1.688984 0,-0.79966 0.2242,-1.47226 0.23167,-0.68008 0.65766,-1.16586 0.43345,-0.49324 1.05375,-0.76976 0.62776,-0.27651 1.41994,-0.27651 0.62777,0 1.16585,0.21673 0.53809,0.21673 0.93418,0.63524 0.39609,0.41103 0.62029,1.01638 0.23168,0.60534 0.23168,1.39005 0,0.16442 -0.0448,0.2242 -0.0448,0.0598 -0.14947,0.0598 z" />
      <path
         id="path874"
         style="font-style:normal;font-variant:normal;font-weight:300;font-stretch:normal;font-size:14.9468px;font-family:Lato;-inkscape-font-specification:'Lato, Light';font-variant-ligatures:normal;font-variant-caps:normal;font-variant-numeric:normal;font-variant-east-asian:normal;fill:#5fd3bc;fill-opacity:1;stroke-width:0.264583"
         d="m 268.06458,-102.67607 q -0.0598,0.10463 -0.17189,0.10463 -0.0822,0 -0.20925,-0.0897 -0.12705,-0.0972 -0.34378,-0.20926 -0.20925,-0.11957 -0.52313,-0.20925 -0.31389,-0.0972 -0.76229,-0.0972 -0.40357,0 -0.73987,0.11958 -0.32883,0.1121 -0.56798,0.30641 -0.23167,0.19431 -0.35872,0.45587 -0.12705,0.2541 -0.12705,0.53809 0,0.35125 0.17936,0.58292 0.17937,0.23168 0.46335,0.3961 0.29147,0.16441 0.66514,0.28398 0.37367,0.11958 0.75481,0.23915 0.38862,0.11958 0.76229,0.269046 0.37367,0.141994 0.65766,0.358723 0.29146,0.216728 0.47082,0.530611 0.17936,0.313883 0.17936,0.762287 0,0.485771 -0.17189,0.904281 -0.17188,0.418511 -0.50819,0.72492 -0.32883,0.30641 -0.8146,0.485771 -0.48577,0.179362 -1.11353,0.179362 -0.78471,0 -1.35269,-0.246622 -0.56798,-0.254096 -1.01638,-0.65766 l 0.16441,-0.254095 q 0.0374,-0.05979 0.0822,-0.08968 0.0523,-0.02989 0.13452,-0.02989 0.0972,0 0.23168,0.119575 0.14199,0.119574 0.37367,0.261569 0.23167,0.134521 0.56798,0.254095 0.34377,0.119575 0.84449,0.119575 0.47082,0 0.82955,-0.127048 0.35872,-0.134521 0.59787,-0.358723 0.23915,-0.224202 0.35872,-0.523138 0.12705,-0.30641 0.12705,-0.642713 0,-0.37367 -0.17936,-0.620292 -0.17936,-0.246622 -0.47083,-0.41851 -0.29146,-0.171888 -0.66513,-0.291463 -0.36619,-0.119574 -0.75481,-0.239149 -0.38862,-0.119574 -0.76229,-0.261567 -0.3662,-0.142 -0.65766,-0.35872 -0.29146,-0.21673 -0.47082,-0.52314 -0.17936,-0.31389 -0.17936,-0.77724 0,-0.39609 0.17188,-0.76228 0.17189,-0.3662 0.48578,-0.64272 0.32135,-0.27651 0.77723,-0.44093 0.45588,-0.16441 1.02386,-0.16441 0.68007,0 1.20321,0.19431 0.53061,0.19431 0.96407,0.59787 z" />
      <path
         id="path876"
         style="font-style:normal;font-variant:normal;font-weight:300;font-stretch:normal;font-size:14.9468px;font-family:Lato;-inkscape-font-specification:'Lato, Light';font-variant-ligatures:normal;font-variant-caps:normal;font-variant-numeric:normal;font-variant-east-asian:normal;fill:#5fd3bc;fill-opacity:1;stroke-width:0.264583"
         d="m 274.42865,-102.67607 q -0.0598,0.10463 -0.17189,0.10463 -0.0822,0 -0.20925,-0.0897 -0.12705,-0.0972 -0.34378,-0.20926 -0.20925,-0.11957 -0.52314,-0.20925 -0.31388,-0.0972 -0.76228,-0.0972 -0.40357,0 -0.73987,0.11958 -0.32883,0.1121 -0.56798,0.30641 -0.23167,0.19431 -0.35872,0.45587 -0.12705,0.2541 -0.12705,0.53809 0,0.35125 0.17936,0.58292 0.17936,0.23168 0.46335,0.3961 0.29146,0.16441 0.66513,0.28398 0.37367,0.11958 0.75482,0.23915 0.38861,0.11958 0.76228,0.269046 0.37367,0.141994 0.65766,0.358723 0.29147,0.216728 0.47083,0.530611 0.17936,0.313883 0.17936,0.762287 0,0.485771 -0.17189,0.904281 -0.17189,0.418511 -0.50819,0.72492 -0.32883,0.30641 -0.8146,0.485771 -0.48577,0.179362 -1.11354,0.179362 -0.7847,0 -1.35268,-0.246622 -0.56798,-0.254096 -1.01638,-0.65766 l 0.16441,-0.254095 q 0.0374,-0.05979 0.0822,-0.08968 0.0523,-0.02989 0.13452,-0.02989 0.0971,0 0.23167,0.119575 0.142,0.119574 0.37367,0.261569 0.23168,0.134521 0.56798,0.254095 0.34378,0.119575 0.8445,0.119575 0.47082,0 0.82954,-0.127048 0.35873,-0.134521 0.59788,-0.358723 0.23914,-0.224202 0.35872,-0.523138 0.12705,-0.30641 0.12705,-0.642713 0,-0.37367 -0.17936,-0.620292 -0.17937,-0.246622 -0.47083,-0.41851 -0.29146,-0.171888 -0.66513,-0.291463 -0.3662,-0.119574 -0.75481,-0.239149 -0.38862,-0.119574 -0.76229,-0.261567 -0.3662,-0.142 -0.65766,-0.35872 -0.29146,-0.21673 -0.47082,-0.52314 -0.17937,-0.31389 -0.17937,-0.77724 0,-0.39609 0.17189,-0.76228 0.17189,-0.3662 0.48577,-0.64272 0.32136,-0.27651 0.77724,-0.44093 0.45587,-0.16441 1.02385,-0.16441 0.68008,0 1.20322,0.19431 0.53061,0.19431 0.96407,0.59787 z" />
      <path
         id="path878"
         style="font-style:normal;font-variant:normal;font-weight:300;font-stretch:normal;font-size:14.9468px;font-family:Lato;-inkscape-font-specification:'Lato, Light';font-variant-ligatures:normal;font-variant-caps:normal;font-variant-numeric:normal;font-variant-east-asian:normal;fill:#5fd3bc;fill-opacity:1;stroke-width:0.264583"
         d="m 283.20639,-101.67463 q -0.49324,0.20178 -0.89681,0.49324 -0.39609,0.29146 -0.6726,0.65019 -0.27652,0.35872 -0.42599,0.769758 -0.14946,0.411037 -0.14946,0.851967 0,0.575452 0.21673,1.001436 0.2242,0.425984 0.57545,0.717446 0.35125,0.283989 0.77723,0.425984 0.43346,0.141995 0.85197,0.141995 0.53061,0 0.99396,-0.119575 0.47082,-0.119574 0.87439,-0.328829 0.40356,-0.216729 0.74734,-0.508192 0.34377,-0.298936 0.62029,-0.642712 l -3.43029,-3.370508 z m 6.53175,5.515366 h -0.66513 q -0.13452,0 -0.2242,-0.02989 -0.0822,-0.02989 -0.19431,-0.134521 l -1.53205,-1.502154 q -0.32883,0.388617 -0.73239,0.717447 -0.40356,0.321356 -0.87439,0.560505 -0.47082,0.239148 -1.00891,0.37367 -0.53808,0.134521 -1.12848,0.134521 -0.5605,0 -1.10606,-0.186835 -0.54556,-0.186835 -0.97902,-0.545558 -0.42598,-0.366197 -0.69502,-0.889335 -0.26157,-0.530611 -0.26157,-1.203217 0,-0.538085 0.19431,-1.023856 0.1943,-0.49324 0.53061,-0.89681 0.3363,-0.41104 0.79965,-0.73239 0.46335,-0.32136 1.00144,-0.52314 -0.53809,-0.60534 -0.79966,-1.16585 -0.26157,-0.5605 -0.26157,-1.20322 0,-0.52314 0.18684,-0.96407 0.19431,-0.4484 0.54556,-0.77723 0.35125,-0.32883 0.83702,-0.51566 0.49324,-0.18684 1.09859,-0.18684 0.50071,0 0.94912,0.17189 0.4484,0.17189 0.77723,0.46335 0.33631,0.29146 0.53061,0.68008 0.20179,0.38114 0.21673,0.79965 l -0.40356,0.0822 q -0.0747,0.0149 -0.142,-0.0224 -0.0598,-0.0448 -0.0971,-0.14947 -0.0374,-0.20178 -0.16441,-0.45588 -0.11958,-0.25409 -0.34378,-0.47829 -0.2242,-0.2242 -0.55303,-0.37367 -0.32883,-0.15694 -0.76976,-0.15694 -0.44841,0 -0.8146,0.14199 -0.3662,0.13452 -0.62777,0.38862 -0.26157,0.24662 -0.41104,0.5904 -0.14199,0.34377 -0.14199,0.75481 0,0.61282 0.31388,1.17332 0.31388,0.56051 0.97154,1.20322 l 3.34061,3.280823 q 0.33631,-0.538085 0.53062,-1.113536 0.1943,-0.582927 0.25409,-1.128487 0.0149,-0.0971 0.0598,-0.14946 0.0448,-0.0598 0.13452,-0.0598 h 0.41104 q -0.0149,0.7025 -0.26157,1.449838 -0.24662,0.739866 -0.70998,1.419946 z" />
      <path
         id="path880"
         style="font-style:normal;font-variant:normal;font-weight:300;font-stretch:normal;font-size:14.9468px;font-family:Lato;-inkscape-font-specification:'Lato, Light';font-variant-ligatures:normal;font-variant-caps:normal;font-variant-numeric:normal;font-variant-east-asian:normal;fill:#5fd3bc;fill-opacity:1;stroke-width:0.264583"
         d="m 298.34307,-101.03192 q 0.69502,0 1.24805,-0.19431 0.55303,-0.19431 0.93418,-0.53808 0.38861,-0.34378 0.5904,-0.80713 0.20925,-0.47083 0.20925,-1.02386 0,-1.21816 -0.74734,-1.87582 -0.74734,-0.65766 -2.23454,-0.65766 h -1.96551 v 5.09686 z m 0,-5.7022 q 1.86087,0 2.80252,0.8146 0.94912,0.8146 0.94912,2.32422 0,0.69503 -0.26157,1.27795 -0.26157,0.58293 -0.74734,1.00891 -0.48577,0.41851 -1.18079,0.65766 -0.69503,0.23168 -1.56194,0.23168 h -1.96551 v 4.259836 h -0.76976 v -10.574856 z" />
      <path
         id="path882"
         style="font-style:normal;font-variant:normal;font-weight:300;font-stretch:normal;font-size:14.9468px;font-family:Lato;-inkscape-font-specification:'Lato, Light';font-variant-ligatures:normal;font-variant-caps:normal;font-variant-numeric:normal;font-variant-east-asian:normal;fill:#5fd3bc;fill-opacity:1;stroke-width:0.264583"
         d="m 308.66196,-100.62836 q 0,-0.59787 -0.17189,-1.06869 -0.16442,-0.4783 -0.47082,-0.80713 -0.30641,-0.32883 -0.7324,-0.50072 -0.41851,-0.17936 -0.9267,-0.17936 -0.57545,0 -1.03133,0.17936 -0.45588,0.17936 -0.79218,0.51567 -0.32883,0.3363 -0.53061,0.80712 -0.20178,0.47083 -0.26904,1.05375 z m -4.96234,0.45588 v 0.142 q 0,0.837016 0.19431,1.472255 0.19431,0.635239 0.55303,1.068696 0.35872,0.425984 0.86691,0.642713 0.5082,0.216728 1.13596,0.216728 0.56051,0 0.97154,-0.119574 0.41104,-0.127048 0.68756,-0.276516 0.28399,-0.156941 0.4484,-0.276516 0.16441,-0.127048 0.23915,-0.127048 0.0971,0 0.14947,0.07473 l 0.19431,0.239149 q -0.17937,0.224202 -0.4783,0.418511 -0.29146,0.194308 -0.65766,0.336303 -0.35872,0.134521 -0.77724,0.216728 -0.41103,0.08221 -0.82954,0.08221 -0.76229,0 -1.39005,-0.261569 -0.62777,-0.269043 -1.07617,-0.777234 -0.44841,-0.508191 -0.69503,-1.240584 -0.23915,-0.739867 -0.23915,-1.688984 0,-0.79966 0.2242,-1.47226 0.23168,-0.68008 0.65766,-1.16586 0.43346,-0.49324 1.05375,-0.76976 0.62777,-0.27651 1.41995,-0.27651 0.62776,0 1.16585,0.21673 0.53808,0.21673 0.93417,0.63524 0.39609,0.41103 0.62029,1.01638 0.23168,0.60534 0.23168,1.39005 0,0.16442 -0.0448,0.2242 -0.0448,0.0598 -0.14947,0.0598 z" />
      <path
         id="path884"
         style="font-style:normal;font-variant:normal;font-weight:300;font-stretch:normal;font-size:14.9468px;font-family:Lato;-inkscape-font-specification:'Lato, Light';font-variant-ligatures:normal;font-variant-caps:normal;font-variant-numeric:normal;font-variant-east-asian:normal;fill:#5fd3bc;fill-opacity:1;stroke-width:0.264583"
         d="m 311.92013,-101.80168 q 0.17189,-0.45588 0.38862,-0.80713 0.2242,-0.35872 0.50819,-0.60534 0.29146,-0.24663 0.64271,-0.37367 0.35872,-0.13452 0.79218,-0.13452 0.23168,0 0.45588,0.0448 0.2242,0.0374 0.39609,0.14199 l -0.0598,0.49324 q -0.0374,0.11958 -0.14199,0.11958 -0.0897,0 -0.27652,-0.0523 -0.17936,-0.0523 -0.4783,-0.0523 -0.43346,0 -0.76976,0.13452 -0.32883,0.12705 -0.59787,0.38862 -0.26157,0.26157 -0.46335,0.65019 -0.19431,0.38114 -0.35872,0.88186 v 4.812866 h -0.71745 v -7.436036 h 0.38114 q 0.12705,0 0.17936,0.0523 0.0523,0.0523 0.0673,0.17936 z" />
      <path
         id="path886"
         style="font-style:normal;font-variant:normal;font-weight:300;font-stretch:normal;font-size:14.9468px;font-family:Lato;-inkscape-font-specification:'Lato, Light';font-variant-ligatures:normal;font-variant-caps:normal;font-variant-numeric:normal;font-variant-east-asian:normal;fill:#5fd3bc;fill-opacity:1;stroke-width:0.264583"
         d="m 320.52435,-102.67607 q -0.0598,0.10463 -0.17189,0.10463 -0.0822,0 -0.20925,-0.0897 -0.12705,-0.0972 -0.34378,-0.20926 -0.20926,-0.11957 -0.52314,-0.20925 -0.31388,-0.0972 -0.76229,-0.0972 -0.40356,0 -0.73986,0.11958 -0.32883,0.1121 -0.56798,0.30641 -0.23168,0.19431 -0.35872,0.45587 -0.12705,0.2541 -0.12705,0.53809 0,0.35125 0.17936,0.58292 0.17936,0.23168 0.46335,0.3961 0.29146,0.16441 0.66513,0.28398 0.37367,0.11958 0.75482,0.23915 0.38861,0.11958 0.76228,0.269046 0.37367,0.141994 0.65766,0.358723 0.29147,0.216728 0.47083,0.530611 0.17936,0.313883 0.17936,0.762287 0,0.485771 -0.17189,0.904281 -0.17189,0.418511 -0.50819,0.72492 -0.32883,0.30641 -0.8146,0.485771 -0.48577,0.179362 -1.11354,0.179362 -0.7847,0 -1.35268,-0.246622 -0.56798,-0.254096 -1.01639,-0.65766 l 0.16442,-0.254095 q 0.0374,-0.05979 0.0822,-0.08968 0.0523,-0.02989 0.13452,-0.02989 0.0971,0 0.23167,0.119575 0.142,0.119574 0.37367,0.261569 0.23168,0.134521 0.56798,0.254095 0.34378,0.119575 0.8445,0.119575 0.47082,0 0.82954,-0.127048 0.35873,-0.134521 0.59788,-0.358723 0.23914,-0.224202 0.35872,-0.523138 0.12705,-0.30641 0.12705,-0.642713 0,-0.37367 -0.17937,-0.620292 -0.17936,-0.246622 -0.47082,-0.41851 -0.29146,-0.171888 -0.66513,-0.291463 -0.3662,-0.119574 -0.75482,-0.239149 -0.38861,-0.119574 -0.76228,-0.261567 -0.3662,-0.142 -0.65766,-0.35872 -0.29146,-0.21673 -0.47083,-0.52314 -0.17936,-0.31389 -0.17936,-0.77724 0,-0.39609 0.17189,-0.76228 0.17189,-0.3662 0.48577,-0.64272 0.32136,-0.27651 0.77724,-0.44093 0.45587,-0.16441 1.02385,-0.16441 0.68008,0 1.20322,0.19431 0.53061,0.19431 0.96407,0.59787 z" />
      <path
         id="path888"
         style="font-style:normal;font-variant:normal;font-weight:300;font-stretch:normal;font-size:14.9468px;font-family:Lato;-inkscape-font-specification:'Lato, Light';font-variant-ligatures:normal;font-variant-caps:normal;font-variant-numeric:normal;font-variant-east-asian:normal;fill:#5fd3bc;fill-opacity:1;stroke-width:0.264583"
         d="m 325.74499,-103.71487 q 0.79965,0 1.42742,0.27651 0.63523,0.26905 1.06869,0.76976 0.43346,0.50072 0.65766,1.2107 0.23168,0.7025 0.23168,1.576883 0,0.874388 -0.23168,1.576888 -0.2242,0.702499 -0.65766,1.203217 -0.43346,0.500718 -1.06869,0.76976 -0.62777,0.269043 -1.42742,0.269043 -0.79966,0 -1.4349,-0.269043 -0.62776,-0.269042 -1.06869,-0.76976 -0.43346,-0.500718 -0.66514,-1.203217 -0.2242,-0.7025 -0.2242,-1.576888 0,-0.874383 0.2242,-1.576883 0.23168,-0.70998 0.66514,-1.2107 0.44093,-0.50071 1.06869,-0.76976 0.63524,-0.27651 1.4349,-0.27651 z m 0,7.092256 q 0.66513,0 1.15837,-0.224202 0.50072,-0.231676 0.82955,-0.65766 0.3363,-0.425983 0.50072,-1.023855 0.16441,-0.605346 0.16441,-1.352686 0,-0.739863 -0.16441,-1.345213 -0.16442,-0.60534 -0.50072,-1.03133 -0.32883,-0.43346 -0.82955,-0.66513 -0.49324,-0.23168 -1.15837,-0.23168 -0.66514,0 -1.16585,0.23168 -0.49325,0.23167 -0.82955,0.66513 -0.32883,0.42599 -0.50072,1.03133 -0.16441,0.60535 -0.16441,1.345213 0,0.74734 0.16441,1.352686 0.17189,0.597872 0.50072,1.023855 0.3363,0.425984 0.82955,0.65766 0.50071,0.224202 1.16585,0.224202 z" />
      <path
         id="path890"
         style="font-style:normal;font-variant:normal;font-weight:300;font-stretch:normal;font-size:14.9468px;font-family:Lato;-inkscape-font-specification:'Lato, Light';font-variant-ligatures:normal;font-variant-caps:normal;font-variant-numeric:normal;font-variant-east-asian:normal;fill:#5fd3bc;fill-opacity:1;stroke-width:0.264583"
         d="m 331.82974,-102.29493 q 0.51566,-0.64271 1.18827,-1.03132 0.68008,-0.38862 1.50962,-0.38862 0.61282,0 1.07617,0.19431 0.47083,0.19431 0.77724,0.5605 0.30641,0.3662 0.46335,0.88186 0.15694,0.51567 0.15694,1.16585 v 4.753086 h -0.71745 v -4.753086 q 0,-1.04627 -0.4783,-1.63667 -0.47829,-0.59787 -1.45731,-0.59787 -0.72492,0 -1.36016,0.37367 -0.62776,0.36619 -1.12101,1.02385 v 5.590106 h -0.71744 v -7.436036 h 0.39609 q 0.18683,0 0.21673,0.18684 z" />
      <path
         id="path892"
         style="font-style:normal;font-variant:normal;font-weight:300;font-stretch:normal;font-size:14.9468px;font-family:Lato;-inkscape-font-specification:'Lato, Light';font-variant-ligatures:normal;font-variant-caps:normal;font-variant-numeric:normal;font-variant-east-asian:normal;fill:#5fd3bc;fill-opacity:1;stroke-width:0.264583"
         d="m 343.54475,-99.753969 q -1.06122,0.03737 -1.83098,0.171888 -0.76229,0.127048 -1.263,0.35125 -0.49325,0.224202 -0.7324,0.538085 -0.23915,0.306409 -0.23915,0.702499 0,0.37367 0.11958,0.650186 0.12705,0.269043 0.32883,0.448404 0.20925,0.171888 0.4783,0.254096 0.26904,0.08221 0.5605,0.08221 0.43346,0 0.79218,-0.08968 0.3662,-0.09715 0.67261,-0.261569 0.31388,-0.171888 0.58292,-0.403563 0.26905,-0.231676 0.53061,-0.500718 z m -4.37193,-2.787581 q 0.58292,-0.58292 1.22563,-0.88186 0.64272,-0.29893 1.45732,-0.29893 0.59787,0 1.04627,0.1943 0.44841,0.18684 0.73987,0.54556 0.29893,0.35125 0.4484,0.85944 0.14947,0.50072 0.14947,1.12101 v 4.842766 h -0.28399 q -0.2242,0 -0.27651,-0.209255 l -0.10463,-0.956595 q -0.30641,0.298936 -0.61282,0.538085 -0.29894,0.239149 -0.62777,0.403563 -0.32883,0.164415 -0.70997,0.254096 -0.38114,0.08968 -0.83702,0.08968 -0.38114,0 -0.73987,-0.112101 -0.35872,-0.112101 -0.64271,-0.343777 -0.27651,-0.231675 -0.4484,-0.590398 -0.16442,-0.366197 -0.16442,-0.874388 0,-0.470824 0.26904,-0.874388 0.26905,-0.403563 0.8445,-0.702499 0.57545,-0.298936 1.47226,-0.4783 0.90428,-0.17936 2.16728,-0.20925 v -0.77724 q 0,-1.03133 -0.4484,-1.58436 -0.44093,-0.5605 -1.31532,-0.5605 -0.53808,0 -0.91923,0.14947 -0.37367,0.14946 -0.63524,0.32882 -0.26156,0.17937 -0.42598,0.32883 -0.16441,0.14947 -0.27651,0.14947 -0.0822,0 -0.13453,-0.0374 -0.0523,-0.0374 -0.0897,-0.0972 z" />
      <path
         id="path894"
         style="font-style:normal;font-variant:normal;font-weight:300;font-stretch:normal;font-size:14.9468px;font-family:Lato;-inkscape-font-specification:'Lato, Light';font-variant-ligatures:normal;font-variant-caps:normal;font-variant-numeric:normal;font-variant-east-asian:normal;fill:#5fd3bc;fill-opacity:1;stroke-width:0.264583"
         d="m 347.40663,-107.03306 v 10.873796 h -0.71745 v -10.873796 z" />
      <path
         id="path896"
         style="font-style:normal;font-variant:normal;font-weight:300;font-stretch:normal;font-size:14.9468px;font-family:Lato;-inkscape-font-specification:'Lato, Light';font-variant-ligatures:normal;font-variant-caps:normal;font-variant-numeric:normal;font-variant-east-asian:normal;fill:#5fd3bc;fill-opacity:1;stroke-width:0.264583"
         d="m 360.75249,-106.08394 h -3.71428 v 9.924676 h -0.76976 v -9.924676 h -3.7367 v -0.65018 h 8.22074 z" />
      <path
         id="path898"
         style="font-style:normal;font-variant:normal;font-weight:300;font-stretch:normal;font-size:14.9468px;font-family:Lato;-inkscape-font-specification:'Lato, Light';font-variant-ligatures:normal;font-variant-caps:normal;font-variant-numeric:normal;font-variant-east-asian:normal;fill:#5fd3bc;fill-opacity:1;stroke-width:0.264583"
         d="m 361.0519,-101.80168 q 0.17188,-0.45588 0.38861,-0.80713 0.22421,-0.35872 0.50819,-0.60534 0.29147,-0.24663 0.64272,-0.37367 0.35872,-0.13452 0.79218,-0.13452 0.23167,0 0.45587,0.0448 0.22421,0.0374 0.39609,0.14199 l -0.0598,0.49324 q -0.0374,0.11958 -0.142,0.11958 -0.0897,0 -0.27651,-0.0523 -0.17936,-0.0523 -0.4783,-0.0523 -0.43346,0 -0.76976,0.13452 -0.32883,0.12705 -0.59787,0.38862 -0.26157,0.26157 -0.46335,0.65019 -0.19431,0.38114 -0.35873,0.88186 v 4.812866 h -0.71744 v -7.436036 h 0.38114 q 0.12705,0 0.17936,0.0523 0.0523,0.0523 0.0673,0.17936 z" />
      <path
         id="path900"
         style="font-style:normal;font-variant:normal;font-weight:300;font-stretch:normal;font-size:14.9468px;font-family:Lato;-inkscape-font-specification:'Lato, Light';font-variant-ligatures:normal;font-variant-caps:normal;font-variant-numeric:normal;font-variant-east-asian:normal;fill:#5fd3bc;fill-opacity:1;stroke-width:0.264583"
         d="m 369.67246,-99.753969 q -1.06123,0.03737 -1.83099,0.171888 -0.76228,0.127048 -1.263,0.35125 -0.49325,0.224202 -0.7324,0.538085 -0.23914,0.306409 -0.23914,0.702499 0,0.37367 0.11957,0.650186 0.12705,0.269043 0.32883,0.448404 0.20925,0.171888 0.4783,0.254096 0.26904,0.08221 0.5605,0.08221 0.43346,0 0.79218,-0.08968 0.3662,-0.09715 0.67261,-0.261569 0.31388,-0.171888 0.58292,-0.403563 0.26905,-0.231676 0.53062,-0.500718 z m -4.37194,-2.787581 q 0.58292,-0.58292 1.22563,-0.88186 0.64272,-0.29893 1.45732,-0.29893 0.59787,0 1.04627,0.1943 0.44841,0.18684 0.73987,0.54556 0.29894,0.35125 0.4484,0.85944 0.14947,0.50072 0.14947,1.12101 v 4.842766 h -0.28399 q -0.2242,0 -0.27651,-0.209255 l -0.10463,-0.956595 q -0.30641,0.298936 -0.61282,0.538085 -0.29894,0.239149 -0.62777,0.403563 -0.32883,0.164415 -0.70997,0.254096 -0.38114,0.08968 -0.83702,0.08968 -0.38114,0 -0.73987,-0.112101 -0.35872,-0.112101 -0.64271,-0.343777 -0.27651,-0.231675 -0.4484,-0.590398 -0.16442,-0.366197 -0.16442,-0.874388 0,-0.470824 0.26905,-0.874388 0.26904,-0.403563 0.84449,-0.702499 0.57545,-0.298936 1.47226,-0.4783 0.90428,-0.17936 2.16729,-0.20925 v -0.77724 q 0,-1.03133 -0.44841,-1.58436 -0.44093,-0.5605 -1.31532,-0.5605 -0.53808,0 -0.91923,0.14947 -0.37367,0.14946 -0.63523,0.32882 -0.26157,0.17937 -0.42599,0.32883 -0.16441,0.14947 -0.27651,0.14947 -0.0822,0 -0.13453,-0.0374 -0.0523,-0.0374 -0.0897,-0.0972 z" />
      <path
         id="path902"
         style="font-style:normal;font-variant:normal;font-weight:300;font-stretch:normal;font-size:14.9468px;font-family:Lato;-inkscape-font-specification:'Lato, Light';font-variant-ligatures:normal;font-variant-caps:normal;font-variant-numeric:normal;font-variant-east-asian:normal;fill:#5fd3bc;fill-opacity:1;stroke-width:0.264583"
         d="m 373.54182,-103.5953 v 7.436036 h -0.70997 v -7.436036 z m 0.30641,-2.56337 q 0,0.13452 -0.0598,0.25409 -0.0523,0.1121 -0.14199,0.20178 -0.0897,0.0897 -0.20926,0.142 -0.11957,0.0523 -0.25409,0.0523 -0.13452,0 -0.2541,-0.0523 -0.11957,-0.0523 -0.20925,-0.142 -0.0897,-0.0897 -0.142,-0.20178 -0.0523,-0.11957 -0.0523,-0.25409 0,-0.13452 0.0523,-0.2541 0.0523,-0.12705 0.142,-0.21673 0.0897,-0.0897 0.20925,-0.14199 0.11958,-0.0523 0.2541,-0.0523 0.13452,0 0.25409,0.0523 0.11958,0.0523 0.20926,0.14199 0.0897,0.0897 0.14199,0.21673 0.0598,0.11958 0.0598,0.2541 z" />
      <path
         id="path904"
         style="font-style:normal;font-variant:normal;font-weight:300;font-stretch:normal;font-size:14.9468px;font-family:Lato;-inkscape-font-specification:'Lato, Light';font-variant-ligatures:normal;font-variant-caps:normal;font-variant-numeric:normal;font-variant-east-asian:normal;fill:#5fd3bc;fill-opacity:1;stroke-width:0.264583"
         d="m 376.75771,-102.29493 q 0.51566,-0.64271 1.18827,-1.03132 0.68008,-0.38862 1.50962,-0.38862 0.61282,0 1.07617,0.19431 0.47083,0.19431 0.77724,0.5605 0.30641,0.3662 0.46335,0.88186 0.15694,0.51567 0.15694,1.16585 v 4.753086 h -0.71745 v -4.753086 q 0,-1.04627 -0.47829,-1.63667 -0.4783,-0.59787 -1.45732,-0.59787 -0.72492,0 -1.36016,0.37367 -0.62776,0.36619 -1.12101,1.02385 v 5.590106 h -0.71744 v -7.436036 h 0.39609 q 0.18683,0 0.21673,0.18684 z" />
      <path
         id="path906"
         style="font-style:normal;font-variant:normal;font-weight:300;font-stretch:normal;font-size:14.9468px;font-family:Lato;-inkscape-font-specification:'Lato, Light';font-variant-ligatures:normal;font-variant-caps:normal;font-variant-numeric:normal;font-variant-east-asian:normal;fill:#5fd3bc;fill-opacity:1;stroke-width:0.264583"
         d="m 385.10223,-103.5953 v 7.436036 h -0.70997 v -7.436036 z m 0.30641,-2.56337 q 0,0.13452 -0.0598,0.25409 -0.0523,0.1121 -0.14199,0.20178 -0.0897,0.0897 -0.20926,0.142 -0.11957,0.0523 -0.25409,0.0523 -0.13452,0 -0.2541,-0.0523 -0.11957,-0.0523 -0.20925,-0.142 -0.0897,-0.0897 -0.142,-0.20178 -0.0523,-0.11957 -0.0523,-0.25409 0,-0.13452 0.0523,-0.2541 0.0523,-0.12705 0.142,-0.21673 0.0897,-0.0897 0.20925,-0.14199 0.11958,-0.0523 0.2541,-0.0523 0.13452,0 0.25409,0.0523 0.11958,0.0523 0.20926,0.14199 0.0897,0.0897 0.14199,0.21673 0.0598,0.11958 0.0598,0.2541 z" />
      <path
         id="path908"
         style="font-style:normal;font-variant:normal;font-weight:300;font-stretch:normal;font-size:14.9468px;font-family:Lato;-inkscape-font-specification:'Lato, Light';font-variant-ligatures:normal;font-variant-caps:normal;font-variant-numeric:normal;font-variant-east-asian:normal;fill:#5fd3bc;fill-opacity:1;stroke-width:0.264583"
         d="m 388.31813,-102.29493 q 0.51567,-0.64271 1.18827,-1.03132 0.68008,-0.38862 1.50963,-0.38862 0.61282,0 1.07617,0.19431 0.47082,0.19431 0.77723,0.5605 0.30641,0.3662 0.46335,0.88186 0.15694,0.51567 0.15694,1.16585 v 4.753086 h -0.71744 v -4.753086 q 0,-1.04627 -0.4783,-1.63667 -0.4783,-0.59787 -1.45731,-0.59787 -0.72492,0 -1.36016,0.37367 -0.62777,0.36619 -1.12101,1.02385 v 5.590106 h -0.71745 v -7.436036 h 0.39609 q 0.18684,0 0.21673,0.18684 z" />
      <path
         id="path910"
         style="font-style:normal;font-variant:normal;font-weight:300;font-stretch:normal;font-size:14.9468px;font-family:Lato;-inkscape-font-specification:'Lato, Light';font-variant-ligatures:normal;font-variant-caps:normal;font-variant-numeric:normal;font-variant-east-asian:normal;fill:#5fd3bc;fill-opacity:1;stroke-width:0.264583"
         d="m 398.29931,-99.44756 q 0.4783,0 0.85197,-0.134521 0.37367,-0.141994 0.62777,-0.388617 0.25409,-0.246622 0.38861,-0.590402 0.13453,-0.34377 0.13453,-0.76228 0,-0.41851 -0.142,-0.76229 -0.13452,-0.35125 -0.39609,-0.59787 -0.2541,-0.24662 -0.62777,-0.38115 -0.36619,-0.13452 -0.83702,-0.13452 -0.47082,0 -0.84449,0.13452 -0.3662,0.13453 -0.62777,0.38115 -0.25409,0.24662 -0.38861,0.59787 -0.13452,0.34378 -0.13452,0.76229 0,0.41851 0.13452,0.76228 0.13452,0.34378 0.38861,0.590402 0.26157,0.246623 0.62777,0.388617 0.37367,0.134521 0.84449,0.134521 z m 2.78011,3.789014 q 0,-0.35125 -0.18684,-0.560505 -0.17936,-0.216728 -0.48577,-0.336303 -0.30641,-0.119574 -0.70997,-0.164415 -0.39609,-0.05231 -0.83702,-0.07473 -0.43346,-0.02242 -0.87439,-0.04484 -0.44093,-0.02242 -0.82955,-0.08968 -0.28399,0.112101 -0.52313,0.261569 -0.23915,0.141995 -0.41104,0.32883 -0.17189,0.186835 -0.26904,0.403563 -0.0972,0.224202 -0.0972,0.478298 0,0.32883 0.16442,0.605345 0.17188,0.28399 0.49324,0.485771 0.32883,0.209256 0.79966,0.32883 0.47082,0.119574 1.08364,0.119574 0.56798,0 1.05375,-0.127047 0.49324,-0.127048 0.85197,-0.358724 0.36619,-0.231675 0.56797,-0.553031 0.20926,-0.321356 0.20926,-0.7025 z m 0.77723,-7.607924 v 0.24663 q 0,0.16441 -0.20925,0.20178 l -1.13596,0.0822 q 0.20926,0.28399 0.32136,0.63524 0.1121,0.35125 0.1121,0.76229 0,0.53808 -0.19431,0.97902 -0.18684,0.433453 -0.53809,0.747336 -0.34377,0.306409 -0.83702,0.478297 -0.48577,0.171888 -1.07617,0.171888 -0.63524,0 -1.15837,-0.194308 -0.31389,0.179362 -0.50072,0.425984 -0.17936,0.239149 -0.17936,0.478297 0,0.321357 0.2242,0.493245 0.23167,0.171888 0.59787,0.254095 0.37367,0.07473 0.8445,0.09716 0.47829,0.02242 0.97154,0.05231 0.49324,0.02242 0.96407,0.08968 0.47829,0.06726 0.84449,0.239149 0.37367,0.164415 0.59787,0.470824 0.23168,0.298936 0.23168,0.799654 0,0.463351 -0.23168,0.889335 -0.23167,0.425983 -0.6726,0.754813 -0.43346,0.32883 -1.05375,0.523138 -0.6203,0.201782 -1.39006,0.201782 -0.7847,0 -1.3751,-0.164415 -0.5904,-0.156941 -0.99396,-0.433457 -0.39609,-0.269043 -0.59788,-0.627766 -0.20178,-0.358723 -0.20178,-0.762287 0,-0.590398 0.38862,-1.008909 0.38862,-0.425983 1.06122,-0.665132 -0.37367,-0.127048 -0.60534,-0.366197 -0.2242,-0.246622 -0.2242,-0.665132 0,-0.156942 0.0598,-0.32883 0.0598,-0.171888 0.17936,-0.336303 0.11958,-0.171888 0.29147,-0.321356 0.17188,-0.149468 0.38861,-0.269043 -0.53061,-0.306409 -0.82954,-0.814601 -0.29147,-0.50819 -0.29147,-1.18827 0,-0.53808 0.18684,-0.97154 0.19431,-0.44093 0.54556,-0.75482 0.35125,-0.31388 0.83702,-0.48577 0.49324,-0.17188 1.09111,-0.17188 0.49325,0 0.90429,0.11957 0.41851,0.11957 0.74734,0.3363 z" />
    </g>
  </g>
</svg>
