<?xml version="1.0" encoding="UTF-8" standalone="no"?>
<svg
   xmlns:dc="http://purl.org/dc/elements/1.1/"
   xmlns:cc="http://creativecommons.org/ns#"
   xmlns:rdf="http://www.w3.org/1999/02/22-rdf-syntax-ns#"
   xmlns:svg="http://www.w3.org/2000/svg"
   xmlns="http://www.w3.org/2000/svg"
   xmlns:sodipodi="http://sodipodi.sourceforge.net/DTD/sodipodi-0.dtd"
   xmlns:inkscape="http://www.inkscape.org/namespaces/inkscape"
   inkscape:export-ydpi="300"
   inkscape:export-xdpi="300"
   inkscape:export-filename="C:\Users\Cameron\Dropbox\Web\Hunt for Habit\img\logo-center.png"
   inkscape:version="1.0.1 (3bc2e813f5, 2020-09-07)"
   id="svg8"
   version="1.1"
   viewBox="0 0 233.00378 240.78762"
   height="910.06342"
   width="880.64423"
   sodipodi:docname="logo-center (invert).svg">
  <defs
     id="defs2" />
  <sodipodi:namedview
     showborder="false"
     units="px"
     showgrid="false"
     inkscape:document-rotation="0"
     inkscape:current-layer="layer1"
     inkscape:document-units="px"
     inkscape:cy="495.03283"
     inkscape:cx="338.90069"
     inkscape:zoom="0.5"
     inkscape:pageshadow="2"
     inkscape:pageopacity="0.0"
     borderopacity="1.0"
     bordercolor="#666666"
     pagecolor="#ffffff"
     id="base"
     inkscape:window-width="1920"
     inkscape:window-height="1017"
     inkscape:window-x="-8"
     inkscape:window-y="-8"
     inkscape:window-maximized="1"
     inkscape:snap-intersection-paths="true" />
  <metadata
     id="metadata5">
    <rdf:RDF>
      <cc:Work
         rdf:about="">
        <dc:format>image/svg+xml</dc:format>
        <dc:type
           rdf:resource="http://purl.org/dc/dcmitype/StillImage" />
        <dc:title></dc:title>
      </cc:Work>
    </rdf:RDF>
  </metadata>
  <g
     id="layer1"
     inkscape:groupmode="layer"
     inkscape:label="Layer 1"
     transform="translate(-606.80888,268.31903)">
    <path
       d="m 723.31079,-268.31903 c -8.49479,8.49414 -16.98945,16.98803 -25.48424,25.48217 v 3.73879 c 8.49512,-8.49381 16.9875,-16.99049 25.48424,-25.48268 8.47721,8.47266 16.95025,16.94949 25.42583,25.42377 v -3.73621 z m 39.18572,39.18573 v 3.7362 l 3.33365,3.33417 v -3.73673 c -1.11133,-1.11133 -2.22232,-2.22231 -3.33365,-3.33364 z m -78.42984,0.0527 -3.27525,3.27939 v 3.73827 c 1.09245,-1.09245 2.18487,-2.18488 3.27732,-3.27732 -0.001,-1.24609 0.003,-2.49751 -0.002,-3.74034 z m -17.0372,17.0372 c -7.05729,7.05859 -14.11455,14.11686 -21.17184,21.17545 7.05795,7.05794 14.11596,14.11596 21.1739,21.17391 v -3.73828 c -5.81087,-5.81217 -11.62431,-11.62183 -17.43356,-17.43563 5.80925,-5.8138 11.62269,-11.62346 17.43356,-17.43563 -10e-4,-1.24608 0.003,-2.49699 -0.002,-3.73982 z m 112.5585,0.002 v 3.73672 c 5.81153,5.81283 11.62573,11.62273 17.43563,17.43718 -5.8099,5.81445 -11.6241,11.62488 -17.43563,17.4377 v 3.74033 l 21.17597,-21.17596 c -7.05859,-7.05864 -14.11738,-14.11741 -21.17597,-21.17601 z m -98.79655,52.36938 v 3.73827 c 1.09241,1.09247 2.1849,2.18485 3.27732,3.27732 v -3.73828 c -1.09247,-1.09242 -2.18483,-2.18492 -3.27732,-3.27731 z m 85.03874,0.002 -3.33365,3.33158 v 3.74034 l 3.33365,-3.33364 z m -68.00361,17.03204 v 3.74034 c 8.49475,8.49513 16.98949,16.99013 25.48424,25.48527 l 25.42583,-25.42589 v -3.73828 c -8.47557,8.47364 -16.94865,16.94968 -25.42583,25.42171 -8.49599,-8.49325 -16.98982,-16.98838 -25.48424,-25.4832 z"
       style="color:#000000;font-style:normal;font-variant:normal;font-weight:normal;font-stretch:normal;font-size:medium;line-height:normal;font-family:sans-serif;font-variant-ligatures:normal;font-variant-position:normal;font-variant-caps:normal;font-variant-numeric:normal;font-variant-alternates:normal;font-variant-east-asian:normal;font-feature-settings:normal;font-variation-settings:normal;text-indent:0;text-align:start;text-decoration:none;text-decoration-line:none;text-decoration-style:solid;text-decoration-color:#000000;letter-spacing:normal;word-spacing:normal;text-transform:none;writing-mode:lr-tb;direction:ltr;text-orientation:mixed;dominant-baseline:auto;baseline-shift:baseline;text-anchor:start;white-space:normal;shape-padding:0;shape-margin:0;inline-size:0;clip-rule:nonzero;display:inline;overflow:visible;visibility:visible;opacity:1;isolation:auto;mix-blend-mode:normal;color-interpolation:sRGB;color-interpolation-filters:linearRGB;solid-color:#000000;solid-opacity:1;vector-effect:none;fill:#5fd3bc;fill-opacity:1;fill-rule:nonzero;stroke:none;stroke-width:2.64583;stroke-linecap:round;stroke-linejoin:miter;stroke-miterlimit:4;stroke-dasharray:none;stroke-dashoffset:0;stroke-opacity:1;paint-order:stroke fill markers;color-rendering:auto;image-rendering:auto;shape-rendering:auto;text-rendering:auto;enable-background:accumulate;stop-color:#000000;stop-opacity:1"
       id="path867" />
    <path
       sodipodi:nodetypes="ccccc"
       id="path869"
       d="m 685.65657,-177.2981 v 43.63626 l 10.58178,10.58178 v -54.21804 z"
       style="fill:#ffffff;fill-opacity:1;stroke:none;stroke-width:10.5833;stroke-linecap:round;stroke-linejoin:miter;stroke-miterlimit:4;stroke-dasharray:none;paint-order:stroke fill markers" />
    <path
       id="path871"
       d="m 767.41799,-241.6165 v 101.5013 l 10.5823,-10.5823 v -80.33722 z"
       style="fill:#ffffff;fill-opacity:1;stroke:none;stroke-width:10.5833;stroke-linecap:round;stroke-linejoin:miter;stroke-miterlimit:4;stroke-dasharray:none;paint-order:stroke fill markers" />
    <path
       id="path873"
       d="m 679.20321,-241.6165 -10.58385,10.58385 v 80.33309 l 10.58385,10.58436 z"
       style="fill:#ffffff;fill-opacity:1;stroke:none;stroke-width:10.5833;stroke-linecap:round;stroke-linejoin:miter;stroke-miterlimit:4;stroke-dasharray:none;paint-order:stroke fill markers" />
    <path
       id="path875"
       d="m 750.32446,-258.71003 v 67.44757 h -54.08611 v -67.38917 l -10.58178,10.58178 v 67.39124 h 64.66789 v 57.65694 l 10.58385,-10.58385 v -114.52066 z"
       style="fill:#ffffff;fill-opacity:1;stroke:none;stroke-width:10.5833;stroke-linecap:round;stroke-linejoin:miter;stroke-miterlimit:4;stroke-dasharray:none;paint-order:stroke fill markers" />
    <g
       style="font-style:normal;font-variant:normal;font-weight:normal;font-stretch:normal;font-size:49.9447px;line-height:1.25;font-family:'Pathway Gothic One';-inkscape-font-specification:'Pathway Gothic One, Normal';font-variant-ligatures:normal;font-variant-caps:normal;font-variant-numeric:normal;font-variant-east-asian:normal;letter-spacing:0px;word-spacing:0px;fill:#ffffff;fill-opacity:1;stroke:#ffffff;stroke-width:0.529167;stroke-miterlimit:4;stroke-dasharray:none;stroke-opacity:1"
       id="text879"
       aria-label="HUNT FOR HABIT">
      <path
         id="path3037"
         style="font-style:normal;font-variant:normal;font-weight:normal;font-stretch:normal;font-size:49.9447px;font-family:'Pathway Gothic One';-inkscape-font-specification:'Pathway Gothic One, Normal';font-variant-ligatures:normal;font-variant-caps:normal;font-variant-numeric:normal;font-variant-east-asian:normal;fill:#ffffff;stroke:#ffffff;stroke-width:0.529167;stroke-miterlimit:4;stroke-dasharray:none;fill-opacity:1;stroke-opacity:1"
         d="M 618.61068,-50.314301 V -66.14677 h -7.54165 v 15.832469 h -3.99557 v -34.961288 h 3.99557 v 15.932358 h 7.54165 v -15.932358 h 3.94563 v 34.961288 z" />
      <path
         id="path3039"
         style="font-style:normal;font-variant:normal;font-weight:normal;font-stretch:normal;font-size:49.9447px;font-family:'Pathway Gothic One';-inkscape-font-specification:'Pathway Gothic One, Normal';font-variant-ligatures:normal;font-variant-caps:normal;font-variant-numeric:normal;font-variant-east-asian:normal;fill:#ffffff;stroke:#ffffff;stroke-width:0.529167;stroke-miterlimit:4;stroke-dasharray:none;fill-opacity:1;stroke-opacity:1"
         d="m 640.01433,-85.275589 h 3.94563 v 24.522847 q 0,6.342976 -2.04773,8.790266 -1.99779,2.397346 -5.6937,2.397346 -3.69591,0 -5.74364,-2.397346 -1.99779,-2.44729 -1.99779,-8.790266 v -24.522847 h 3.94563 v 25.272017 q 0,4.045521 0.9989,5.643751 0.99889,1.548286 2.74696,1.548286 1.798,0 2.7969,-1.548286 1.04884,-1.59823 1.04884,-5.643751 z" />
      <path
         id="path3041"
         style="font-style:normal;font-variant:normal;font-weight:normal;font-stretch:normal;font-size:49.9447px;font-family:'Pathway Gothic One';-inkscape-font-specification:'Pathway Gothic One, Normal';font-variant-ligatures:normal;font-variant-caps:normal;font-variant-numeric:normal;font-variant-east-asian:normal;fill:#ffffff;stroke:#ffffff;stroke-width:0.529167;stroke-miterlimit:4;stroke-dasharray:none;fill-opacity:1;stroke-opacity:1"
         d="m 653.79282,-50.314301 h -3.89569 v -34.961288 h 4.14541 l 8.14099,25.571685 v -25.571685 h 3.89569 v 34.961288 h -4.14541 l -8.14099,-25.52174 z" />
      <path
         id="path3043"
         style="font-style:normal;font-variant:normal;font-weight:normal;font-stretch:normal;font-size:49.9447px;font-family:'Pathway Gothic One';-inkscape-font-specification:'Pathway Gothic One, Normal';font-variant-ligatures:normal;font-variant-caps:normal;font-variant-numeric:normal;font-variant-east-asian:normal;fill:#ffffff;stroke:#ffffff;stroke-width:0.529167;stroke-miterlimit:4;stroke-dasharray:none;fill-opacity:1;stroke-opacity:1"
         d="m 669.836,-82.079129 v -3.19646 h 13.6349 v 3.19646 h -4.84464 v 31.764828 h -3.94563 v -31.764828 z" />
      <path
         id="path3045"
         style="font-style:normal;font-variant:normal;font-weight:normal;font-stretch:normal;font-size:49.9447px;font-family:'Pathway Gothic One';-inkscape-font-specification:'Pathway Gothic One, Normal';font-variant-ligatures:normal;font-variant-caps:normal;font-variant-numeric:normal;font-variant-east-asian:normal;fill:#ffffff;stroke:#ffffff;stroke-width:0.529167;stroke-miterlimit:4;stroke-dasharray:none;fill-opacity:1;stroke-opacity:1"
         d="m 698.47225,-66.14677 v 15.832469 h -3.99557 v -34.961288 h 11.98673 v 3.19646 h -7.99116 v 12.735898 h 7.24199 v 3.196461 z" />
      <path
         id="path3047"
         style="font-style:normal;font-variant:normal;font-weight:normal;font-stretch:normal;font-size:49.9447px;font-family:'Pathway Gothic One';-inkscape-font-specification:'Pathway Gothic One, Normal';font-variant-ligatures:normal;font-variant-caps:normal;font-variant-numeric:normal;font-variant-east-asian:normal;fill:#ffffff;stroke:#ffffff;stroke-width:0.529167;stroke-miterlimit:4;stroke-dasharray:none;fill-opacity:1;stroke-opacity:1"
         d="m 725.5056,-74.837147 v 14.084405 q 0,6.342976 -2.04773,8.790266 -1.99779,2.397346 -5.79359,2.397346 -3.74585,0 -5.79358,-2.397346 -1.99779,-2.44729 -1.99779,-8.790266 v -14.084405 q 0,-6.342977 1.99779,-8.740323 2.04773,-2.44729 5.79358,-2.44729 3.7958,0 5.79359,2.44729 2.04773,2.397346 2.04773,8.740323 z m -3.94563,14.833575 v -15.582746 q 0,-7.192036 -3.84574,-7.192036 -1.84795,0 -2.89679,1.548285 -0.9989,1.548286 -0.9989,5.643751 v 15.582746 q 0,4.095465 0.9989,5.643751 1.04884,1.548286 2.89679,1.548286 3.84574,0 3.84574,-7.192037 z" />
      <path
         id="path3049"
         style="font-style:normal;font-variant:normal;font-weight:normal;font-stretch:normal;font-size:49.9447px;font-family:'Pathway Gothic One';-inkscape-font-specification:'Pathway Gothic One, Normal';font-variant-ligatures:normal;font-variant-caps:normal;font-variant-numeric:normal;font-variant-east-asian:normal;fill:#ffffff;stroke:#ffffff;stroke-width:0.529167;stroke-miterlimit:4;stroke-dasharray:none;fill-opacity:1;stroke-opacity:1"
         d="m 731.05727,-50.314301 v -34.961288 h 6.19314 q 3.69591,0 5.74364,2.3474 2.04773,2.347401 2.04773,8.440654 v 0.249724 q 0,7.591594 -3.6959,9.639327 l 4.14541,14.284183 h -4.09547 l -3.89569,-13.385179 h -2.44729 v 13.385179 z m 10.03888,-23.424063 v -1.498341 q 0,-3.845742 -1.04884,-5.344083 -0.99889,-1.498341 -2.7969,-1.498341 h -2.19757 v 15.233133 h 2.19757 q 3.84574,0 3.84574,-6.892368 z" />
      <path
         id="path3051"
         style="font-style:normal;font-variant:normal;font-weight:normal;font-stretch:normal;font-size:49.9447px;font-family:'Pathway Gothic One';-inkscape-font-specification:'Pathway Gothic One, Normal';font-variant-ligatures:normal;font-variant-caps:normal;font-variant-numeric:normal;font-variant-east-asian:normal;fill:#ffffff;stroke:#ffffff;stroke-width:0.529167;stroke-miterlimit:4;stroke-dasharray:none;fill-opacity:1;stroke-opacity:1"
         d="M 769.12762,-50.314301 V -66.14677 h -7.54165 v 15.832469 h -3.99558 v -34.961288 h 3.99558 v 15.932358 h 7.54165 v -15.932358 h 3.94563 v 34.961288 z" />
      <path
         id="path3053"
         style="font-style:normal;font-variant:normal;font-weight:normal;font-stretch:normal;font-size:49.9447px;font-family:'Pathway Gothic One';-inkscape-font-specification:'Pathway Gothic One, Normal';font-variant-ligatures:normal;font-variant-caps:normal;font-variant-numeric:normal;font-variant-east-asian:normal;fill:#ffffff;stroke:#ffffff;stroke-width:0.529167;stroke-miterlimit:4;stroke-dasharray:none;fill-opacity:1;stroke-opacity:1"
         d="m 791.08065,-50.314301 -1.54829,-9.089935 h -7.0422 l -1.49834,9.089935 h -3.99558 l 6.39292,-34.961288 h 5.29414 l 6.39292,34.961288 z m -5.04442,-29.916874 -2.99668,17.630479 h 5.94342 z" />
      <path
         id="path3055"
         style="font-style:normal;font-variant:normal;font-weight:normal;font-stretch:normal;font-size:49.9447px;font-family:'Pathway Gothic One';-inkscape-font-specification:'Pathway Gothic One, Normal';font-variant-ligatures:normal;font-variant-caps:normal;font-variant-numeric:normal;font-variant-east-asian:normal;fill:#ffffff;stroke:#ffffff;stroke-width:0.529167;stroke-miterlimit:4;stroke-dasharray:none;fill-opacity:1;stroke-opacity:1"
         d="m 799.04839,-50.314301 v -34.961288 h 5.69369 q 3.74585,0 5.74364,2.097677 2.04774,2.097677 2.04774,7.341871 0,6.093253 -4.2453,7.491704 4.99447,1.098784 4.99447,8.041097 0,5.543861 -2.04774,7.791373 -2.04773,2.197566 -5.69369,2.197566 z m 10.33855,-9.03999 v -1.348507 q 0,-6.243087 -3.94563,-6.243087 h -2.39735 v 13.485068 h 2.39735 q 1.8979,0 2.89679,-1.298562 1.04884,-1.298562 1.04884,-4.594912 z m -0.54939,-16.082193 v -1.198673 q 0,-3.146516 -0.9989,-4.295244 -0.99889,-1.198672 -2.84684,-1.198672 h -1.94785 v 12.536119 h 1.94785 q 3.84574,0 3.84574,-5.84353 z" />
      <path
         id="path3057"
         style="font-style:normal;font-variant:normal;font-weight:normal;font-stretch:normal;font-size:49.9447px;font-family:'Pathway Gothic One';-inkscape-font-specification:'Pathway Gothic One, Normal';font-variant-ligatures:normal;font-variant-caps:normal;font-variant-numeric:normal;font-variant-east-asian:normal;fill:#ffffff;stroke:#ffffff;stroke-width:0.529167;stroke-miterlimit:4;stroke-dasharray:none;fill-opacity:1;stroke-opacity:1"
         d="m 818.16785,-50.314301 v -34.961288 h 3.99557 v 34.961288 z" />
      <path
         id="path3059"
         style="font-style:normal;font-variant:normal;font-weight:normal;font-stretch:normal;font-size:49.9447px;font-family:'Pathway Gothic One';-inkscape-font-specification:'Pathway Gothic One, Normal';font-variant-ligatures:normal;font-variant-caps:normal;font-variant-numeric:normal;font-variant-east-asian:normal;fill:#ffffff;stroke:#ffffff;stroke-width:0.529167;stroke-miterlimit:4;stroke-dasharray:none;fill-opacity:1;stroke-opacity:1"
         d="m 825.91318,-82.079129 v -3.19646 h 13.6349 v 3.19646 h -4.84463 v 31.764828 h -3.94563 v -31.764828 z" />
    </g>
    <g
       style="font-style:normal;font-variant:normal;font-weight:300;font-stretch:normal;font-size:14.9468px;line-height:1.25;font-family:Lato;-inkscape-font-specification:'Lato, Light';font-variant-ligatures:normal;font-variant-caps:normal;font-variant-numeric:normal;font-variant-east-asian:normal;letter-spacing:0px;word-spacing:0px;fill:#5fd3bc;fill-opacity:1;stroke:none;stroke-width:0.264583"
       id="text883"
       aria-label="Fitness &amp; Personal Training">
      <path
         id="path3062"
         style="font-style:normal;font-variant:normal;font-weight:300;font-stretch:normal;font-size:14.9468px;font-family:Lato;-inkscape-font-specification:'Lato, Light';font-variant-ligatures:normal;font-variant-caps:normal;font-variant-numeric:normal;font-variant-east-asian:normal;fill:#5fd3bc;fill-opacity:1;stroke-width:0.264583"
         d="m 638.88767,-40.243671 v 4.446673 h 4.82034 v 0.635239 h -4.82034 v 4.85771 h -0.76976 V -40.87891 h 6.33744 v 0.635239 z" />
      <path
         id="path3064"
         style="font-style:normal;font-variant:normal;font-weight:300;font-stretch:normal;font-size:14.9468px;font-family:Lato;-inkscape-font-specification:'Lato, Light';font-variant-ligatures:normal;font-variant-caps:normal;font-variant-numeric:normal;font-variant-east-asian:normal;fill:#5fd3bc;fill-opacity:1;stroke-width:0.264583"
         d="m 646.95217,-37.740082 v 7.436033 h -0.70997 v -7.436033 z m 0.30641,-2.563376 q 0,0.134521 -0.0598,0.254096 -0.0523,0.112101 -0.14199,0.201782 -0.0897,0.08968 -0.20926,0.141994 -0.11957,0.05231 -0.25409,0.05231 -0.13453,0 -0.2541,-0.05231 -0.11957,-0.05231 -0.20926,-0.141994 -0.0897,-0.08968 -0.14199,-0.201782 -0.0523,-0.119575 -0.0523,-0.254096 0,-0.134521 0.0523,-0.254095 0.0523,-0.127048 0.14199,-0.216729 0.0897,-0.08968 0.20926,-0.141995 0.11957,-0.05231 0.2541,-0.05231 0.13452,0 0.25409,0.05231 0.11958,0.05231 0.20926,0.141995 0.0897,0.08968 0.14199,0.216729 0.0598,0.119574 0.0598,0.254095 z" />
      <path
         id="path3066"
         style="font-style:normal;font-variant:normal;font-weight:300;font-stretch:normal;font-size:14.9468px;font-family:Lato;-inkscape-font-specification:'Lato, Light';font-variant-ligatures:normal;font-variant-caps:normal;font-variant-numeric:normal;font-variant-east-asian:normal;fill:#5fd3bc;fill-opacity:1;stroke-width:0.264583"
         d="m 651.52075,-30.184474 q -0.75481,0 -1.1808,-0.418511 -0.41851,-0.41851 -0.41851,-1.292898 v -5.081912 h -1.06869 q -0.0822,0 -0.13452,-0.04484 -0.0523,-0.04484 -0.0523,-0.127048 v -0.276516 l 1.27048,-0.08968 0.17936,-2.66053 q 0.0149,-0.06726 0.0598,-0.119574 0.0448,-0.05231 0.12705,-0.05231 h 0.3363 v 2.839892 h 2.34665 v 0.530611 h -2.34665 v 5.044545 q 0,0.30641 0.0747,0.530612 0.0822,0.216728 0.21673,0.358723 0.142,0.141994 0.32883,0.209255 0.18684,0.06726 0.40357,0.06726 0.26904,0 0.46335,-0.07473 0.19431,-0.08221 0.3363,-0.171889 0.14199,-0.09715 0.23168,-0.171888 0.0897,-0.08221 0.14199,-0.08221 0.0598,0 0.11957,0.07473 l 0.19431,0.313883 q -0.28399,0.313882 -0.72492,0.508191 -0.43345,0.186835 -0.90428,0.186834 z" />
      <path
         id="path3068"
         style="font-style:normal;font-variant:normal;font-weight:300;font-stretch:normal;font-size:14.9468px;font-family:Lato;-inkscape-font-specification:'Lato, Light';font-variant-ligatures:normal;font-variant-caps:normal;font-variant-numeric:normal;font-variant-east-asian:normal;fill:#5fd3bc;fill-opacity:1;stroke-width:0.264583"
         d="m 655.27684,-36.43971 q 0.51566,-0.642712 1.18827,-1.031329 0.68008,-0.388617 1.50962,-0.388617 0.61282,0 1.07617,0.194308 0.47083,0.194309 0.77724,0.560505 0.30641,0.366197 0.46335,0.881862 0.15694,0.515664 0.15694,1.16585 v 4.753082 h -0.71745 v -4.753082 q 0,-1.046276 -0.4783,-1.636675 -0.47829,-0.597872 -1.45731,-0.597872 -0.72492,0 -1.36016,0.37367 -0.62776,0.366197 -1.12101,1.023856 v 5.590103 h -0.71744 v -7.436033 h 0.39609 q 0.18683,0 0.21672,0.186835 z" />
      <path
         id="path3070"
         style="font-style:normal;font-variant:normal;font-weight:300;font-stretch:normal;font-size:14.9468px;font-family:Lato;-inkscape-font-specification:'Lato, Light';font-variant-ligatures:normal;font-variant-caps:normal;font-variant-numeric:normal;font-variant-east-asian:normal;fill:#5fd3bc;fill-opacity:1;stroke-width:0.264583"
         d="m 668.04561,-34.773142 q 0,-0.597872 -0.17189,-1.068696 -0.16442,-0.478298 -0.47082,-0.807127 -0.30641,-0.32883 -0.7324,-0.500718 -0.41851,-0.179362 -0.9267,-0.179362 -0.57545,0 -1.03133,0.179362 -0.45588,0.179362 -0.79218,0.515665 -0.32883,0.336303 -0.53061,0.807127 -0.20178,0.470824 -0.26904,1.053749 z m -4.96234,0.455878 v 0.141994 q 0,0.837021 0.19431,1.47226 0.19431,0.635239 0.55303,1.068696 0.35872,0.425984 0.86691,0.642713 0.5082,0.216728 1.13596,0.216728 0.56051,0 0.97154,-0.119574 0.41104,-0.127048 0.68756,-0.276516 0.28399,-0.156941 0.4484,-0.276516 0.16441,-0.127048 0.23915,-0.127048 0.0972,0 0.14947,0.07473 l 0.19431,0.239149 q -0.17937,0.224202 -0.4783,0.418511 -0.29147,0.194308 -0.65766,0.336303 -0.35872,0.134521 -0.77724,0.216728 -0.41103,0.08221 -0.82954,0.08221 -0.76229,0 -1.39006,-0.261569 -0.62776,-0.269043 -1.07616,-0.777234 -0.44841,-0.508191 -0.69503,-1.240584 -0.23915,-0.739867 -0.23915,-1.688989 0,-0.799654 0.2242,-1.47226 0.23168,-0.680079 0.65766,-1.16585 0.43346,-0.493244 1.05375,-0.76976 0.62777,-0.276516 1.41995,-0.276516 0.62776,0 1.16585,0.216729 0.53808,0.216728 0.93417,0.635239 0.39609,0.411037 0.62029,1.016382 0.23168,0.605345 0.23168,1.390052 0,0.164415 -0.0448,0.224202 -0.0448,0.05979 -0.14947,0.05979 z" />
      <path
         id="path3072"
         style="font-style:normal;font-variant:normal;font-weight:300;font-stretch:normal;font-size:14.9468px;font-family:Lato;-inkscape-font-specification:'Lato, Light';font-variant-ligatures:normal;font-variant-caps:normal;font-variant-numeric:normal;font-variant-east-asian:normal;fill:#5fd3bc;fill-opacity:1;stroke-width:0.264583"
         d="m 674.71165,-36.820853 q -0.0598,0.104627 -0.17189,0.104627 -0.0822,0 -0.20926,-0.08968 -0.12704,-0.09715 -0.34377,-0.209255 -0.20926,-0.119574 -0.52314,-0.209255 -0.31388,-0.09715 -0.76229,-0.09715 -0.40356,0 -0.73986,0.119574 -0.32883,0.112101 -0.56798,0.30641 -0.23168,0.194308 -0.35873,0.455877 -0.12704,0.254096 -0.12704,0.538085 0,0.35125 0.17936,0.582925 0.17936,0.231675 0.46335,0.39609 0.29146,0.164415 0.66513,0.283989 0.37367,0.119575 0.75482,0.239149 0.38861,0.119575 0.76228,0.269043 0.37367,0.141994 0.65766,0.358723 0.29146,0.216728 0.47083,0.530611 0.17936,0.313883 0.17936,0.762287 0,0.485771 -0.17189,0.904281 -0.17189,0.418511 -0.50819,0.72492 -0.32883,0.30641 -0.8146,0.485771 -0.48577,0.179362 -1.11354,0.179362 -0.78471,0 -1.35269,-0.246622 -0.56797,-0.254096 -1.01638,-0.65766 l 0.16442,-0.254095 q 0.0374,-0.05979 0.0822,-0.08968 0.0523,-0.02989 0.13453,-0.02989 0.0971,0 0.23167,0.119575 0.142,0.119574 0.37367,0.261569 0.23168,0.134521 0.56798,0.254095 0.34378,0.119575 0.84449,0.119575 0.47083,0 0.82955,-0.127048 0.35872,-0.134521 0.59787,-0.358723 0.23915,-0.224202 0.35873,-0.523138 0.12704,-0.30641 0.12704,-0.642713 0,-0.37367 -0.17936,-0.620292 -0.17936,-0.246622 -0.47082,-0.41851 -0.29146,-0.171888 -0.66513,-0.291463 -0.3662,-0.119574 -0.75482,-0.239149 -0.38861,-0.119574 -0.76228,-0.261569 -0.3662,-0.141994 -0.65766,-0.358723 -0.29147,-0.216728 -0.47083,-0.523138 -0.17936,-0.313883 -0.17936,-0.777233 0,-0.396091 0.17189,-0.762287 0.17189,-0.366197 0.48577,-0.642713 0.32136,-0.276515 0.77723,-0.44093 0.45588,-0.164415 1.02386,-0.164415 0.68008,0 1.20322,0.194308 0.53061,0.194309 0.96407,0.597872 z" />
      <path
         id="path3074"
         style="font-style:normal;font-variant:normal;font-weight:300;font-stretch:normal;font-size:14.9468px;font-family:Lato;-inkscape-font-specification:'Lato, Light';font-variant-ligatures:normal;font-variant-caps:normal;font-variant-numeric:normal;font-variant-east-asian:normal;fill:#5fd3bc;fill-opacity:1;stroke-width:0.264583"
         d="m 681.07571,-36.820853 q -0.0598,0.104627 -0.17188,0.104627 -0.0822,0 -0.20926,-0.08968 -0.12705,-0.09715 -0.34378,-0.209255 -0.20925,-0.119574 -0.52313,-0.209255 -0.31389,-0.09715 -0.76229,-0.09715 -0.40356,0 -0.73987,0.119574 -0.32883,0.112101 -0.56798,0.30641 -0.23167,0.194308 -0.35872,0.455877 -0.12705,0.254096 -0.12705,0.538085 0,0.35125 0.17937,0.582925 0.17936,0.231675 0.46335,0.39609 0.29146,0.164415 0.66513,0.283989 0.37367,0.119575 0.75481,0.239149 0.38862,0.119575 0.76229,0.269043 0.37367,0.141994 0.65766,0.358723 0.29146,0.216728 0.47082,0.530611 0.17936,0.313883 0.17936,0.762287 0,0.485771 -0.17188,0.904281 -0.17189,0.418511 -0.5082,0.72492 -0.32883,0.30641 -0.8146,0.485771 -0.48577,0.179362 -1.11353,0.179362 -0.78471,0 -1.35269,-0.246622 -0.56798,-0.254096 -1.01638,-0.65766 l 0.16441,-0.254095 q 0.0374,-0.05979 0.0822,-0.08968 0.0523,-0.02989 0.13452,-0.02989 0.0972,0 0.23168,0.119575 0.14199,0.119574 0.37367,0.261569 0.23167,0.134521 0.56798,0.254095 0.34377,0.119575 0.84449,0.119575 0.47083,0 0.82955,-0.127048 0.35872,-0.134521 0.59787,-0.358723 0.23915,-0.224202 0.35872,-0.523138 0.12705,-0.30641 0.12705,-0.642713 0,-0.37367 -0.17936,-0.620292 -0.17936,-0.246622 -0.47082,-0.41851 -0.29147,-0.171888 -0.66514,-0.291463 -0.36619,-0.119574 -0.75481,-0.239149 -0.38862,-0.119574 -0.76229,-0.261569 -0.36619,-0.141994 -0.65766,-0.358723 -0.29146,-0.216728 -0.47082,-0.523138 -0.17936,-0.313883 -0.17936,-0.777233 0,-0.396091 0.17189,-0.762287 0.17188,-0.366197 0.48577,-0.642713 0.32135,-0.276515 0.77723,-0.44093 0.45588,-0.164415 1.02386,-0.164415 0.68008,0 1.20321,0.194308 0.53062,0.194309 0.96407,0.597872 z" />
      <path
         id="path3076"
         style="font-style:normal;font-variant:normal;font-weight:300;font-stretch:normal;font-size:14.9468px;font-family:Lato;-inkscape-font-specification:'Lato, Light';font-variant-ligatures:normal;font-variant-caps:normal;font-variant-numeric:normal;font-variant-east-asian:normal;fill:#5fd3bc;fill-opacity:1;stroke-width:0.264583"
         d="m 689.85346,-35.819418 q -0.49325,0.201782 -0.89681,0.493245 -0.39609,0.291462 -0.67261,0.650185 -0.27651,0.358724 -0.42598,0.769761 -0.14947,0.411037 -0.14947,0.851967 0,0.575452 0.21673,1.001436 0.2242,0.425984 0.57545,0.717446 0.35125,0.283989 0.77723,0.425984 0.43346,0.141995 0.85197,0.141995 0.53061,0 0.99396,-0.119575 0.47083,-0.119574 0.87439,-0.328829 0.40357,-0.216729 0.74734,-0.508192 0.34378,-0.298936 0.62029,-0.642712 l -3.43029,-3.370503 z m 6.53175,5.515369 h -0.66513 q -0.13453,0 -0.22421,-0.02989 -0.0822,-0.02989 -0.1943,-0.134521 l -1.53205,-1.502154 q -0.32883,0.388617 -0.73239,0.717447 -0.40357,0.321356 -0.87439,0.560505 -0.47083,0.239148 -1.00891,0.37367 -0.53809,0.134521 -1.12849,0.134521 -0.5605,0 -1.10606,-0.186835 -0.54556,-0.186835 -0.97901,-0.545558 -0.42599,-0.366197 -0.69503,-0.889335 -0.26157,-0.530611 -0.26157,-1.203217 0,-0.538085 0.19431,-1.023856 0.19431,-0.493245 0.53061,-0.896808 0.3363,-0.411037 0.79965,-0.732393 0.46336,-0.321357 1.00144,-0.523138 -0.53808,-0.605346 -0.79965,-1.165851 -0.26157,-0.560505 -0.26157,-1.203217 0,-0.523138 0.18683,-0.964069 0.19431,-0.448404 0.54556,-0.777233 0.35125,-0.32883 0.83702,-0.515665 0.49325,-0.186835 1.09859,-0.186835 0.50072,0 0.94912,0.171888 0.44841,0.171888 0.77724,0.463351 0.3363,0.291463 0.53061,0.680079 0.20178,0.381144 0.21673,0.799654 l -0.40357,0.08221 q -0.0747,0.01495 -0.14199,-0.02242 -0.0598,-0.04484 -0.0972,-0.149468 -0.0374,-0.201781 -0.16441,-0.455877 -0.11957,-0.254096 -0.34378,-0.478298 -0.2242,-0.224202 -0.55303,-0.37367 -0.32883,-0.156941 -0.76976,-0.156941 -0.4484,0 -0.8146,0.141995 -0.3662,0.134521 -0.62776,0.388616 -0.26157,0.246623 -0.41104,0.590399 -0.142,0.343776 -0.142,0.754813 0,0.612819 0.31389,1.173324 0.31388,0.560505 0.97154,1.203218 l 3.34061,3.280822 q 0.3363,-0.538085 0.53061,-1.113536 0.19431,-0.582926 0.2541,-1.128484 0.0149,-0.09715 0.0598,-0.149468 0.0448,-0.05979 0.13452,-0.05979 h 0.41104 q -0.0149,0.7025 -0.26157,1.44984 -0.24662,0.739866 -0.70997,1.419946 z" />
      <path
         id="path3078"
         style="font-style:normal;font-variant:normal;font-weight:300;font-stretch:normal;font-size:14.9468px;font-family:Lato;-inkscape-font-specification:'Lato, Light';font-variant-ligatures:normal;font-variant-caps:normal;font-variant-numeric:normal;font-variant-east-asian:normal;fill:#5fd3bc;fill-opacity:1;stroke-width:0.264583"
         d="m 704.99013,-35.176705 q 0.69503,0 1.24806,-0.194309 0.55303,-0.194308 0.93417,-0.538085 0.38862,-0.343776 0.5904,-0.807127 0.20926,-0.470824 0.20926,-1.023856 0,-1.218164 -0.74734,-1.875823 -0.74734,-0.657659 -2.23455,-0.657659 h -1.9655 v 5.096859 z m 0,-5.702205 q 1.86088,0 2.80252,0.814601 0.94913,0.814601 0.94913,2.324227 0,0.695027 -0.26157,1.277952 -0.26157,0.582925 -0.74734,1.008909 -0.48577,0.41851 -1.1808,0.657659 -0.69503,0.231675 -1.56194,0.231675 h -1.9655 v 4.259838 h -0.76976 V -40.87891 Z" />
      <path
         id="path3080"
         style="font-style:normal;font-variant:normal;font-weight:300;font-stretch:normal;font-size:14.9468px;font-family:Lato;-inkscape-font-specification:'Lato, Light';font-variant-ligatures:normal;font-variant-caps:normal;font-variant-numeric:normal;font-variant-east-asian:normal;fill:#5fd3bc;fill-opacity:1;stroke-width:0.264583"
         d="m 715.30902,-34.773142 q 0,-0.597872 -0.17189,-1.068696 -0.16441,-0.478298 -0.47082,-0.807127 -0.30641,-0.32883 -0.73239,-0.500718 -0.41851,-0.179362 -0.92671,-0.179362 -0.57545,0 -1.03132,0.179362 -0.45588,0.179362 -0.79218,0.515665 -0.32883,0.336303 -0.53062,0.807127 -0.20178,0.470824 -0.26904,1.053749 z m -4.96234,0.455878 v 0.141994 q 0,0.837021 0.19431,1.47226 0.19431,0.635239 0.55303,1.068696 0.35873,0.425984 0.86692,0.642713 0.50819,0.216728 1.13596,0.216728 0.5605,0 0.97154,-0.119574 0.41103,-0.127048 0.68755,-0.276516 0.28399,-0.156941 0.4484,-0.276516 0.16442,-0.127048 0.23915,-0.127048 0.0972,0 0.14947,0.07473 l 0.19431,0.239149 q -0.17936,0.224202 -0.4783,0.418511 -0.29146,0.194308 -0.65766,0.336303 -0.35872,0.134521 -0.77723,0.216728 -0.41104,0.08221 -0.82955,0.08221 -0.76229,0 -1.39005,-0.261569 -0.62777,-0.269043 -1.07617,-0.777234 -0.4484,-0.508191 -0.69503,-1.240584 -0.23915,-0.739867 -0.23915,-1.688989 0,-0.799654 0.22421,-1.47226 0.23167,-0.680079 0.65766,-1.16585 0.43345,-0.493244 1.05375,-0.76976 0.62776,-0.276516 1.41994,-0.276516 0.62777,0 1.16585,0.216729 0.53809,0.216728 0.93418,0.635239 0.39609,0.411037 0.62029,1.016382 0.23167,0.605345 0.23167,1.390052 0,0.164415 -0.0448,0.224202 -0.0448,0.05979 -0.14946,0.05979 z" />
      <path
         id="path3082"
         style="font-style:normal;font-variant:normal;font-weight:300;font-stretch:normal;font-size:14.9468px;font-family:Lato;-inkscape-font-specification:'Lato, Light';font-variant-ligatures:normal;font-variant-caps:normal;font-variant-numeric:normal;font-variant-east-asian:normal;fill:#5fd3bc;fill-opacity:1;stroke-width:0.264583"
         d="m 718.56719,-35.946466 q 0.17189,-0.455877 0.38862,-0.807127 0.2242,-0.358723 0.50819,-0.605345 0.29146,-0.246622 0.64271,-0.37367 0.35873,-0.134521 0.79218,-0.134521 0.23168,0 0.45588,0.04484 0.2242,0.03737 0.39609,0.141995 l -0.0598,0.493244 q -0.0374,0.119574 -0.14199,0.119574 -0.0897,0 -0.27652,-0.05231 -0.17936,-0.05231 -0.47829,-0.05231 -0.43346,0 -0.76976,0.134521 -0.32883,0.127048 -0.59788,0.388617 -0.26156,0.261569 -0.46335,0.650186 -0.19431,0.381143 -0.35872,0.881861 v 4.812869 h -0.71745 v -7.436033 h 0.38115 q 0.12704,0 0.17936,0.05231 0.0523,0.05231 0.0673,0.179362 z" />
      <path
         id="path3084"
         style="font-style:normal;font-variant:normal;font-weight:300;font-stretch:normal;font-size:14.9468px;font-family:Lato;-inkscape-font-specification:'Lato, Light';font-variant-ligatures:normal;font-variant-caps:normal;font-variant-numeric:normal;font-variant-east-asian:normal;fill:#5fd3bc;fill-opacity:1;stroke-width:0.264583"
         d="m 727.17141,-36.820853 q -0.0598,0.104627 -0.17188,0.104627 -0.0822,0 -0.20926,-0.08968 -0.12705,-0.09715 -0.34378,-0.209255 -0.20925,-0.119574 -0.52313,-0.209255 -0.31389,-0.09715 -0.76229,-0.09715 -0.40356,0 -0.73987,0.119574 -0.32883,0.112101 -0.56798,0.30641 -0.23167,0.194308 -0.35872,0.455877 -0.12705,0.254096 -0.12705,0.538085 0,0.35125 0.17936,0.582925 0.17937,0.231675 0.46336,0.39609 0.29146,0.164415 0.66513,0.283989 0.37367,0.119575 0.75481,0.239149 0.38862,0.119575 0.76229,0.269043 0.37367,0.141994 0.65766,0.358723 0.29146,0.216728 0.47082,0.530611 0.17936,0.313883 0.17936,0.762287 0,0.485771 -0.17188,0.904281 -0.17189,0.418511 -0.5082,0.72492 -0.32883,0.30641 -0.8146,0.485771 -0.48577,0.179362 -1.11353,0.179362 -0.78471,0 -1.35269,-0.246622 -0.56798,-0.254096 -1.01638,-0.65766 l 0.16441,-0.254095 q 0.0374,-0.05979 0.0822,-0.08968 0.0523,-0.02989 0.13452,-0.02989 0.0972,0 0.23168,0.119575 0.14199,0.119574 0.37367,0.261569 0.23167,0.134521 0.56798,0.254095 0.34377,0.119575 0.84449,0.119575 0.47082,0 0.82955,-0.127048 0.35872,-0.134521 0.59787,-0.358723 0.23915,-0.224202 0.35872,-0.523138 0.12705,-0.30641 0.12705,-0.642713 0,-0.37367 -0.17936,-0.620292 -0.17936,-0.246622 -0.47083,-0.41851 -0.29146,-0.171888 -0.66513,-0.291463 -0.36619,-0.119574 -0.75481,-0.239149 -0.38862,-0.119574 -0.76229,-0.261569 -0.36619,-0.141994 -0.65766,-0.358723 -0.29146,-0.216728 -0.47082,-0.523138 -0.17936,-0.313883 -0.17936,-0.777233 0,-0.396091 0.17189,-0.762287 0.17188,-0.366197 0.48577,-0.642713 0.32135,-0.276515 0.77723,-0.44093 0.45588,-0.164415 1.02386,-0.164415 0.68008,0 1.20321,0.194308 0.53061,0.194309 0.96407,0.597872 z" />
      <path
         id="path3086"
         style="font-style:normal;font-variant:normal;font-weight:300;font-stretch:normal;font-size:14.9468px;font-family:Lato;-inkscape-font-specification:'Lato, Light';font-variant-ligatures:normal;font-variant-caps:normal;font-variant-numeric:normal;font-variant-east-asian:normal;fill:#5fd3bc;fill-opacity:1;stroke-width:0.264583"
         d="m 732.39205,-37.859656 q 0.79965,0 1.42742,0.276516 0.63524,0.269042 1.0687,0.76976 0.43345,0.500718 0.65766,1.210691 0.23167,0.702499 0.23167,1.576887 0,0.874388 -0.23167,1.576888 -0.22421,0.702499 -0.65766,1.203217 -0.43346,0.500718 -1.0687,0.76976 -0.62777,0.269043 -1.42742,0.269043 -0.79965,0 -1.43489,-0.269043 -0.62777,-0.269042 -1.0687,-0.76976 -0.43346,-0.500718 -0.66513,-1.203217 -0.2242,-0.7025 -0.2242,-1.576888 0,-0.874388 0.2242,-1.576887 0.23167,-0.709973 0.66513,-1.210691 0.44093,-0.500718 1.0687,-0.76976 0.63524,-0.276516 1.43489,-0.276516 z m 0,7.092257 q 0.66513,0 1.15838,-0.224202 0.50072,-0.231676 0.82955,-0.65766 0.3363,-0.425983 0.50071,-1.023855 0.16442,-0.605346 0.16442,-1.352686 0,-0.739866 -0.16442,-1.345212 -0.16441,-0.605345 -0.50071,-1.031329 -0.32883,-0.433457 -0.82955,-0.665133 -0.49325,-0.231675 -1.15838,-0.231675 -0.66513,0 -1.16585,0.231675 -0.49324,0.231676 -0.82955,0.665133 -0.32883,0.425984 -0.50072,1.031329 -0.16441,0.605346 -0.16441,1.345212 0,0.74734 0.16441,1.352686 0.17189,0.597872 0.50072,1.023855 0.33631,0.425984 0.82955,0.65766 0.50072,0.224202 1.16585,0.224202 z" />
      <path
         id="path3088"
         style="font-style:normal;font-variant:normal;font-weight:300;font-stretch:normal;font-size:14.9468px;font-family:Lato;-inkscape-font-specification:'Lato, Light';font-variant-ligatures:normal;font-variant-caps:normal;font-variant-numeric:normal;font-variant-east-asian:normal;fill:#5fd3bc;fill-opacity:1;stroke-width:0.264583"
         d="m 738.4768,-36.43971 q 0.51566,-0.642712 1.18827,-1.031329 0.68008,-0.388617 1.50963,-0.388617 0.61282,0 1.07617,0.194308 0.47082,0.194309 0.77723,0.560505 0.30641,0.366197 0.46335,0.881862 0.15694,0.515664 0.15694,1.16585 v 4.753082 h -0.71744 v -4.753082 q 0,-1.046276 -0.4783,-1.636675 -0.4783,-0.597872 -1.45731,-0.597872 -0.72492,0 -1.36016,0.37367 -0.62777,0.366197 -1.12101,1.023856 v 5.590103 h -0.71745 v -7.436033 h 0.39609 q 0.18684,0 0.21673,0.186835 z" />
      <path
         id="path3090"
         style="font-style:normal;font-variant:normal;font-weight:300;font-stretch:normal;font-size:14.9468px;font-family:Lato;-inkscape-font-specification:'Lato, Light';font-variant-ligatures:normal;font-variant-caps:normal;font-variant-numeric:normal;font-variant-east-asian:normal;fill:#5fd3bc;fill-opacity:1;stroke-width:0.264583"
         d="m 750.19182,-33.898754 q -1.06122,0.03737 -1.83098,0.171888 -0.76229,0.127048 -1.26301,0.35125 -0.49324,0.224202 -0.73239,0.538085 -0.23915,0.306409 -0.23915,0.702499 0,0.37367 0.11957,0.650186 0.12705,0.269043 0.32883,0.448404 0.20926,0.171888 0.4783,0.254096 0.26904,0.08221 0.56051,0.08221 0.43345,0 0.79218,-0.08968 0.36619,-0.09715 0.6726,-0.261569 0.31388,-0.171888 0.58293,-0.403563 0.26904,-0.231676 0.53061,-0.500718 z m -4.37194,-2.787578 q 0.58292,-0.582925 1.22564,-0.881861 0.64271,-0.298936 1.45731,-0.298936 0.59787,0 1.04628,0.194308 0.4484,0.186835 0.73986,0.545558 0.29894,0.35125 0.44841,0.859441 0.14947,0.500718 0.14947,1.12101 v 4.842763 h -0.28399 q -0.22421,0 -0.27652,-0.209255 l -0.10463,-0.956595 q -0.30641,0.298936 -0.61282,0.538085 -0.29893,0.239149 -0.62776,0.403563 -0.32883,0.164415 -0.70998,0.254096 -0.38114,0.08968 -0.83702,0.08968 -0.38114,0 -0.73986,-0.112101 -0.35873,-0.112101 -0.64271,-0.343777 -0.27652,-0.231675 -0.44841,-0.590398 -0.16441,-0.366197 -0.16441,-0.874388 0,-0.470824 0.26904,-0.874388 0.26904,-0.403563 0.84449,-0.702499 0.57545,-0.298936 1.47226,-0.478298 0.90428,-0.179362 2.16729,-0.209255 v -0.777234 q 0,-1.031329 -0.44841,-1.584361 -0.44093,-0.560505 -1.31531,-0.560505 -0.53809,0 -0.91923,0.149468 -0.37367,0.149468 -0.63524,0.32883 -0.26157,0.179362 -0.42598,0.32883 -0.16442,0.149468 -0.27652,0.149468 -0.0822,0 -0.13452,-0.03737 -0.0523,-0.03737 -0.0897,-0.09715 z" />
      <path
         id="path3092"
         style="font-style:normal;font-variant:normal;font-weight:300;font-stretch:normal;font-size:14.9468px;font-family:Lato;-inkscape-font-specification:'Lato, Light';font-variant-ligatures:normal;font-variant-caps:normal;font-variant-numeric:normal;font-variant-east-asian:normal;fill:#5fd3bc;fill-opacity:1;stroke-width:0.264583"
         d="m 754.05369,-41.177846 v 10.873797 h -0.71744 v -10.873797 z" />
      <path
         id="path3094"
         style="font-style:normal;font-variant:normal;font-weight:300;font-stretch:normal;font-size:14.9468px;font-family:Lato;-inkscape-font-specification:'Lato, Light';font-variant-ligatures:normal;font-variant-caps:normal;font-variant-numeric:normal;font-variant-east-asian:normal;fill:#5fd3bc;fill-opacity:1;stroke-width:0.264583"
         d="m 767.39956,-40.228724 h -3.71428 v 9.924675 h -0.76976 v -9.924675 h -3.7367 v -0.650186 h 8.22074 z" />
      <path
         id="path3096"
         style="font-style:normal;font-variant:normal;font-weight:300;font-stretch:normal;font-size:14.9468px;font-family:Lato;-inkscape-font-specification:'Lato, Light';font-variant-ligatures:normal;font-variant-caps:normal;font-variant-numeric:normal;font-variant-east-asian:normal;fill:#5fd3bc;fill-opacity:1;stroke-width:0.264583"
         d="m 767.69896,-35.946466 q 0.17189,-0.455877 0.38862,-0.807127 0.2242,-0.358723 0.50819,-0.605345 0.29146,-0.246622 0.64271,-0.37367 0.35872,-0.134521 0.79218,-0.134521 0.23168,0 0.45588,0.04484 0.2242,0.03737 0.39609,0.141995 l -0.0598,0.493244 q -0.0374,0.119574 -0.14199,0.119574 -0.0897,0 -0.27652,-0.05231 -0.17936,-0.05231 -0.4783,-0.05231 -0.43345,0 -0.76976,0.134521 -0.32883,0.127048 -0.59787,0.388617 -0.26157,0.261569 -0.46335,0.650186 -0.19431,0.381143 -0.35872,0.881861 v 4.812869 h -0.71745 v -7.436033 h 0.38114 q 0.12705,0 0.17937,0.05231 0.0523,0.05231 0.0673,0.179362 z" />
      <path
         id="path3098"
         style="font-style:normal;font-variant:normal;font-weight:300;font-stretch:normal;font-size:14.9468px;font-family:Lato;-inkscape-font-specification:'Lato, Light';font-variant-ligatures:normal;font-variant-caps:normal;font-variant-numeric:normal;font-variant-east-asian:normal;fill:#5fd3bc;fill-opacity:1;stroke-width:0.264583"
         d="m 776.31952,-33.898754 q -1.06122,0.03737 -1.83098,0.171888 -0.76229,0.127048 -1.26301,0.35125 -0.49324,0.224202 -0.73239,0.538085 -0.23915,0.306409 -0.23915,0.702499 0,0.37367 0.11957,0.650186 0.12705,0.269043 0.32883,0.448404 0.20926,0.171888 0.4783,0.254096 0.26904,0.08221 0.56051,0.08221 0.43345,0 0.79218,-0.08968 0.36619,-0.09715 0.6726,-0.261569 0.31389,-0.171888 0.58293,-0.403563 0.26904,-0.231676 0.53061,-0.500718 z m -4.37194,-2.787578 q 0.58293,-0.582925 1.22564,-0.881861 0.64271,-0.298936 1.45731,-0.298936 0.59787,0 1.04628,0.194308 0.4484,0.186835 0.73986,0.545558 0.29894,0.35125 0.44841,0.859441 0.14947,0.500718 0.14947,1.12101 v 4.842763 h -0.28399 q -0.22421,0 -0.27652,-0.209255 l -0.10463,-0.956595 q -0.30641,0.298936 -0.61282,0.538085 -0.29893,0.239149 -0.62776,0.403563 -0.32883,0.164415 -0.70997,0.254096 -0.38115,0.08968 -0.83703,0.08968 -0.38114,0 -0.73986,-0.112101 -0.35872,-0.112101 -0.64271,-0.343777 -0.27652,-0.231675 -0.44841,-0.590398 -0.16441,-0.366197 -0.16441,-0.874388 0,-0.470824 0.26904,-0.874388 0.26904,-0.403563 0.84449,-0.702499 0.57546,-0.298936 1.47226,-0.478298 0.90428,-0.179362 2.16729,-0.209255 v -0.777234 q 0,-1.031329 -0.4484,-1.584361 -0.44094,-0.560505 -1.31532,-0.560505 -0.53809,0 -0.91923,0.149468 -0.37367,0.149468 -0.63524,0.32883 -0.26157,0.179362 -0.42598,0.32883 -0.16442,0.149468 -0.27652,0.149468 -0.0822,0 -0.13452,-0.03737 -0.0523,-0.03737 -0.0897,-0.09715 z" />
      <path
         id="path3100"
         style="font-style:normal;font-variant:normal;font-weight:300;font-stretch:normal;font-size:14.9468px;font-family:Lato;-inkscape-font-specification:'Lato, Light';font-variant-ligatures:normal;font-variant-caps:normal;font-variant-numeric:normal;font-variant-east-asian:normal;fill:#5fd3bc;fill-opacity:1;stroke-width:0.264583"
         d="m 780.18888,-37.740082 v 7.436033 h -0.70997 v -7.436033 z m 0.30641,-2.563376 q 0,0.134521 -0.0598,0.254096 -0.0523,0.112101 -0.142,0.201782 -0.0897,0.08968 -0.20925,0.141994 -0.11958,0.05231 -0.2541,0.05231 -0.13452,0 -0.25409,-0.05231 -0.11958,-0.05231 -0.20926,-0.141994 -0.0897,-0.08968 -0.14199,-0.201782 -0.0523,-0.119575 -0.0523,-0.254096 0,-0.134521 0.0523,-0.254095 0.0523,-0.127048 0.14199,-0.216729 0.0897,-0.08968 0.20926,-0.141995 0.11957,-0.05231 0.25409,-0.05231 0.13452,0 0.2541,0.05231 0.11957,0.05231 0.20925,0.141995 0.0897,0.08968 0.142,0.216729 0.0598,0.119574 0.0598,0.254095 z" />
      <path
         id="path3102"
         style="font-style:normal;font-variant:normal;font-weight:300;font-stretch:normal;font-size:14.9468px;font-family:Lato;-inkscape-font-specification:'Lato, Light';font-variant-ligatures:normal;font-variant-caps:normal;font-variant-numeric:normal;font-variant-east-asian:normal;fill:#5fd3bc;fill-opacity:1;stroke-width:0.264583"
         d="m 783.40477,-36.43971 q 0.51567,-0.642712 1.18827,-1.031329 0.68008,-0.388617 1.50963,-0.388617 0.61282,0 1.07617,0.194308 0.47082,0.194309 0.77723,0.560505 0.30641,0.366197 0.46335,0.881862 0.15694,0.515664 0.15694,1.16585 v 4.753082 h -0.71744 v -4.753082 q 0,-1.046276 -0.4783,-1.636675 -0.4783,-0.597872 -1.45731,-0.597872 -0.72492,0 -1.36016,0.37367 -0.62777,0.366197 -1.12101,1.023856 v 5.590103 h -0.71745 v -7.436033 h 0.39609 q 0.18684,0 0.21673,0.186835 z" />
      <path
         id="path3104"
         style="font-style:normal;font-variant:normal;font-weight:300;font-stretch:normal;font-size:14.9468px;font-family:Lato;-inkscape-font-specification:'Lato, Light';font-variant-ligatures:normal;font-variant-caps:normal;font-variant-numeric:normal;font-variant-east-asian:normal;fill:#5fd3bc;fill-opacity:1;stroke-width:0.264583"
         d="m 791.74929,-37.740082 v 7.436033 h -0.70997 v -7.436033 z m 0.30641,-2.563376 q 0,0.134521 -0.0598,0.254096 -0.0523,0.112101 -0.142,0.201782 -0.0897,0.08968 -0.20925,0.141994 -0.11958,0.05231 -0.2541,0.05231 -0.13452,0 -0.25409,-0.05231 -0.11958,-0.05231 -0.20926,-0.141994 -0.0897,-0.08968 -0.14199,-0.201782 -0.0523,-0.119575 -0.0523,-0.254096 0,-0.134521 0.0523,-0.254095 0.0523,-0.127048 0.14199,-0.216729 0.0897,-0.08968 0.20926,-0.141995 0.11957,-0.05231 0.25409,-0.05231 0.13452,0 0.2541,0.05231 0.11957,0.05231 0.20925,0.141995 0.0897,0.08968 0.142,0.216729 0.0598,0.119574 0.0598,0.254095 z" />
      <path
         id="path3106"
         style="font-style:normal;font-variant:normal;font-weight:300;font-stretch:normal;font-size:14.9468px;font-family:Lato;-inkscape-font-specification:'Lato, Light';font-variant-ligatures:normal;font-variant-caps:normal;font-variant-numeric:normal;font-variant-east-asian:normal;fill:#5fd3bc;fill-opacity:1;stroke-width:0.264583"
         d="m 794.9652,-36.43971 q 0.51566,-0.642712 1.18827,-1.031329 0.68008,-0.388617 1.50962,-0.388617 0.61282,0 1.07617,0.194308 0.47083,0.194309 0.77724,0.560505 0.30641,0.366197 0.46335,0.881862 0.15694,0.515664 0.15694,1.16585 v 4.753082 h -0.71745 v -4.753082 q 0,-1.046276 -0.4783,-1.636675 -0.47829,-0.597872 -1.45731,-0.597872 -0.72492,0 -1.36016,0.37367 -0.62776,0.366197 -1.12101,1.023856 v 5.590103 h -0.71744 v -7.436033 h 0.39609 q 0.18683,0 0.21673,0.186835 z" />
      <path
         id="path3108"
         style="font-style:normal;font-variant:normal;font-weight:300;font-stretch:normal;font-size:14.9468px;font-family:Lato;-inkscape-font-specification:'Lato, Light';font-variant-ligatures:normal;font-variant-caps:normal;font-variant-numeric:normal;font-variant-east-asian:normal;fill:#5fd3bc;fill-opacity:1;stroke-width:0.264583"
         d="m 804.94638,-33.592345 q 0.4783,0 0.85197,-0.134521 0.37367,-0.141994 0.62776,-0.388617 0.2541,-0.246622 0.38862,-0.590398 0.13452,-0.343777 0.13452,-0.762287 0,-0.41851 -0.142,-0.762287 -0.13452,-0.35125 -0.39609,-0.597872 -0.25409,-0.246622 -0.62776,-0.381143 -0.3662,-0.134521 -0.83702,-0.134521 -0.47083,0 -0.8445,0.134521 -0.36619,0.134521 -0.62776,0.381143 -0.2541,0.246622 -0.38862,0.597872 -0.13452,0.343777 -0.13452,0.762287 0,0.41851 0.13452,0.762287 0.13452,0.343776 0.38862,0.590398 0.26157,0.246623 0.62776,0.388617 0.37367,0.134521 0.8445,0.134521 z m 2.7801,3.789014 q 0,-0.35125 -0.18683,-0.560505 -0.17936,-0.216728 -0.48577,-0.336303 -0.30641,-0.119574 -0.70998,-0.164415 -0.39609,-0.05231 -0.83702,-0.07473 -0.43345,-0.02242 -0.87438,-0.04484 -0.44094,-0.02242 -0.82955,-0.08968 -0.28399,0.112101 -0.52314,0.261569 -0.23915,0.141995 -0.41104,0.32883 -0.17189,0.186835 -0.26904,0.403563 -0.0972,0.224202 -0.0972,0.478298 0,0.32883 0.16441,0.605345 0.17189,0.28399 0.49325,0.485771 0.32883,0.209256 0.79965,0.32883 0.47082,0.119574 1.08364,0.119574 0.56798,0 1.05375,-0.127047 0.49325,-0.127048 0.85197,-0.358724 0.3662,-0.231675 0.56798,-0.553031 0.20925,-0.321356 0.20925,-0.7025 z m 0.77724,-7.607921 v 0.246622 q 0,0.164415 -0.20926,0.201782 l -1.13596,0.08221 q 0.20926,0.28399 0.32136,0.635239 0.1121,0.35125 0.1121,0.762287 0,0.538085 -0.19431,0.979016 -0.18683,0.433457 -0.53808,0.74734 -0.34378,0.306409 -0.83702,0.478297 -0.48577,0.171888 -1.07617,0.171888 -0.63524,0 -1.15838,-0.194308 -0.31388,0.179362 -0.50072,0.425984 -0.17936,0.239149 -0.17936,0.478297 0,0.321357 0.2242,0.493245 0.23168,0.171888 0.59788,0.254095 0.37367,0.07473 0.84449,0.09716 0.4783,0.02242 0.97154,0.05231 0.49325,0.02242 0.96407,0.08968 0.4783,0.06726 0.84449,0.239149 0.37367,0.164415 0.59788,0.470824 0.23167,0.298936 0.23167,0.799654 0,0.463351 -0.23167,0.889335 -0.23168,0.425983 -0.67261,0.754813 -0.43346,0.32883 -1.05375,0.523138 -0.62029,0.201782 -1.39005,0.201782 -0.78471,0 -1.37511,-0.164415 -0.5904,-0.156941 -0.99396,-0.433457 -0.39609,-0.269043 -0.59787,-0.627766 -0.20178,-0.358723 -0.20178,-0.762287 0,-0.590398 0.38861,-1.008909 0.38862,-0.425983 1.06123,-0.665132 -0.37367,-0.127048 -0.60535,-0.366197 -0.2242,-0.246622 -0.2242,-0.665132 0,-0.156942 0.0598,-0.32883 0.0598,-0.171888 0.17936,-0.336303 0.11957,-0.171888 0.29146,-0.321356 0.17189,-0.149468 0.38862,-0.269043 -0.53061,-0.306409 -0.82955,-0.8146 -0.29146,-0.508191 -0.29146,-1.188271 0,-0.538085 0.18683,-0.971542 0.19431,-0.44093 0.54556,-0.754813 0.35125,-0.313883 0.83702,-0.485771 0.49325,-0.171888 1.09112,-0.171888 0.49324,0 0.90428,0.119574 0.41851,0.119574 0.74734,0.336303 z" />
    </g>
  </g>
</svg>
